<svg width="281" height="64" viewBox="0 0 281 64" fill="none" xmlns="http://www.w3.org/2000/svg">
<g filter="url(#filter0_d)">
<mask id="path-1-outside-1" maskUnits="userSpaceOnUse" x="3" y="0" width="278" height="61" fill="black">
<rect fill="white" x="3" width="278" height="61"/>
<path d="M18.69 44.658C16.922 44.658 15.29 44.437 13.794 43.995C12.332 43.553 11.159 42.975 10.275 42.261C9.425 41.547 9 40.782 9 39.966C9 39.558 9.102 39.082 9.306 38.538C9.544 37.994 9.85 37.518 10.224 37.11C10.632 36.702 11.091 36.498 11.601 36.498C12.145 36.498 12.689 36.702 13.233 37.11C13.777 37.484 14.44 37.858 15.222 38.232C16.038 38.606 17.126 38.793 18.486 38.793C19.846 38.793 20.713 38.606 21.087 38.232C21.461 37.824 21.648 37.45 21.648 37.11C21.648 36.532 21.359 36.09 20.781 35.784C20.203 35.444 19.455 35.172 18.537 34.968C17.653 34.73 16.701 34.475 15.681 34.203C14.661 33.897 13.692 33.489 12.774 32.979C11.89 32.469 11.159 31.772 10.581 30.888C10.003 30.004 9.714 28.848 9.714 27.42C9.714 26.162 10.003 24.938 10.581 23.748C11.193 22.524 12.196 21.521 13.59 20.739C14.984 19.957 16.888 19.566 19.302 19.566C20.798 19.566 22.192 19.719 23.484 20.025C24.81 20.331 25.881 20.773 26.697 21.351C27.547 21.895 27.972 22.524 27.972 23.238C27.972 23.578 27.853 24.054 27.615 24.666C27.411 25.244 27.088 25.771 26.646 26.247C26.238 26.723 25.728 26.961 25.116 26.961C24.674 26.961 24.181 26.842 23.637 26.604C23.093 26.332 22.481 26.077 21.801 25.839C21.121 25.567 20.322 25.431 19.404 25.431C18.384 25.431 17.636 25.618 17.16 25.992C16.718 26.332 16.497 26.689 16.497 27.063C16.497 27.539 16.786 27.913 17.364 28.185C17.942 28.423 18.69 28.661 19.608 28.899C20.526 29.103 21.495 29.358 22.515 29.664C23.535 29.936 24.504 30.361 25.422 30.939C26.34 31.483 27.088 32.231 27.666 33.183C28.244 34.101 28.533 35.308 28.533 36.804C28.533 39.184 27.683 41.088 25.983 42.516C24.317 43.944 21.886 44.658 18.69 44.658Z"/>
<path d="M37.0153 55.215C35.8933 55.215 34.9583 54.96 34.2103 54.45C33.4963 53.94 33.1393 53.379 33.1393 52.767V22.269C33.1393 21.555 33.4963 20.977 34.2103 20.535C34.9583 20.093 35.8593 19.872 36.9133 19.872C37.9673 19.872 38.8343 20.093 39.5143 20.535C40.1943 20.977 40.5343 21.555 40.5343 22.269V23.442C41.1123 22.456 41.9963 21.572 43.1863 20.79C44.4103 19.974 45.8213 19.566 47.4193 19.566C49.1533 19.566 50.7003 20.059 52.0603 21.045C53.4543 21.997 54.5423 23.289 55.3243 24.921C56.1403 26.519 56.5483 28.304 56.5483 30.276V33.846C56.5483 35.716 56.1403 37.484 55.3243 39.15C54.5083 40.782 53.4203 42.108 52.0603 43.128C50.7343 44.148 49.2723 44.658 47.6743 44.658C46.1783 44.658 44.8183 44.25 43.5943 43.434C42.3703 42.584 41.5203 41.632 41.0443 40.578V52.767C41.0443 53.379 40.6533 53.94 39.8713 54.45C39.0893 54.96 38.1373 55.215 37.0153 55.215ZM44.8693 37.773C45.8553 37.773 46.7223 37.365 47.4703 36.549C48.2523 35.733 48.6433 34.832 48.6433 33.846V30.276C48.6433 29.29 48.2693 28.406 47.5213 27.624C46.7733 26.842 45.8553 26.451 44.7673 26.451C43.8493 26.451 42.9993 26.791 42.2173 27.471C41.4353 28.151 41.0443 29.086 41.0443 30.276V34.509C41.0443 34.781 41.1973 35.189 41.5033 35.733C41.8433 36.243 42.3023 36.719 42.8803 37.161C43.4583 37.569 44.1213 37.773 44.8693 37.773Z"/>
<path d="M65.2086 44.148C64.0526 44.148 63.1006 43.893 62.3526 43.383C61.6386 42.873 61.2816 42.312 61.2816 41.7V22.269C61.2816 21.555 61.6386 20.977 62.3526 20.535C63.1006 20.093 64.0526 19.872 65.2086 19.872C66.2966 19.872 67.2316 20.093 68.0136 20.535C68.7956 20.977 69.1866 21.555 69.1866 22.269V41.7C69.1866 42.312 68.7956 42.873 68.0136 43.383C67.2316 43.893 66.2966 44.148 65.2086 44.148ZM65.2086 15.18C64.0526 15.18 63.0666 14.806 62.2506 14.058C61.4346 13.31 61.0266 12.46 61.0266 11.508C61.0266 10.522 61.4346 9.672 62.2506 8.958C63.0666 8.244 64.0526 7.887 65.2086 7.887C66.3646 7.887 67.3336 8.244 68.1156 8.958C68.9316 9.672 69.3396 10.522 69.3396 11.508C69.3396 12.46 68.9316 13.31 68.1156 14.058C67.3336 14.806 66.3646 15.18 65.2086 15.18Z"/>
<path d="M78.6088 44.148C77.4868 44.148 76.5518 43.893 75.8038 43.383C75.0898 42.873 74.7328 42.312 74.7328 41.7V22.269C74.7328 21.555 75.0898 20.977 75.8038 20.535C76.5518 20.093 77.4868 19.872 78.6088 19.872C79.5948 19.872 80.4278 20.093 81.1078 20.535C81.7878 20.977 82.1278 21.555 82.1278 22.269V24.156C82.4678 23.408 82.9438 22.694 83.5558 22.014C84.2018 21.3 84.9158 20.722 85.6978 20.28C86.5138 19.804 87.3468 19.566 88.1968 19.566H89.6758C90.4238 19.566 91.0698 19.906 91.6138 20.586C92.1918 21.266 92.4808 22.065 92.4808 22.983C92.4808 23.935 92.1918 24.751 91.6138 25.431C91.0698 26.111 90.4238 26.451 89.6758 26.451H88.1968C87.2788 26.451 86.3948 26.774 85.5448 27.42C84.6948 28.032 83.9978 28.899 83.4538 30.021C82.9098 31.143 82.6378 32.486 82.6378 34.05V41.7C82.6378 42.312 82.2468 42.873 81.4648 43.383C80.6828 43.893 79.7308 44.148 78.6088 44.148Z"/>
<path d="M107.177 44.658C105.069 44.658 103.131 44.165 101.363 43.179C99.5951 42.159 98.1841 40.833 97.1301 39.201C96.0761 37.569 95.5491 35.818 95.5491 33.948V22.32C95.5491 21.708 95.9401 21.147 96.7221 20.637C97.5041 20.127 98.4391 19.872 99.5271 19.872C100.581 19.872 101.499 20.127 102.281 20.637C103.063 21.147 103.454 21.708 103.454 22.32V33.948C103.454 34.9 103.811 35.784 104.525 36.6C105.273 37.382 106.157 37.773 107.177 37.773C108.197 37.773 109.064 37.382 109.778 36.6C110.492 35.784 110.849 34.9 110.849 33.948V22.269C110.849 21.623 111.24 21.062 112.022 20.586C112.838 20.11 113.773 19.872 114.827 19.872C115.983 19.872 116.918 20.11 117.632 20.586C118.38 21.062 118.754 21.623 118.754 22.269V33.948C118.754 35.852 118.227 37.62 117.173 39.252C116.119 40.884 114.708 42.193 112.94 43.179C111.206 44.165 109.285 44.658 107.177 44.658Z"/>
<path d="M128.483 44.148C127.327 44.148 126.375 43.893 125.627 43.383C124.913 42.873 124.556 42.312 124.556 41.7V8.397C124.556 7.683 124.913 7.105 125.627 6.663C126.375 6.221 127.327 6 128.483 6C129.571 6 130.506 6.221 131.288 6.663C132.07 7.105 132.461 7.683 132.461 8.397V41.7C132.461 42.312 132.07 42.873 131.288 43.383C130.506 43.893 129.571 44.148 128.483 44.148Z"/>
<path d="M142.422 44.148C141.266 44.148 140.314 43.893 139.566 43.383C138.852 42.873 138.495 42.312 138.495 41.7V22.269C138.495 21.555 138.852 20.977 139.566 20.535C140.314 20.093 141.266 19.872 142.422 19.872C143.51 19.872 144.445 20.093 145.227 20.535C146.008 20.977 146.4 21.555 146.4 22.269V41.7C146.4 42.312 146.008 42.873 145.227 43.383C144.445 43.893 143.51 44.148 142.422 44.148ZM142.422 15.18C141.266 15.18 140.279 14.806 139.464 14.058C138.648 13.31 138.24 12.46 138.24 11.508C138.24 10.522 138.648 9.672 139.464 8.958C140.279 8.244 141.266 7.887 142.422 7.887C143.578 7.887 144.547 8.244 145.329 8.958C146.145 9.672 146.553 10.522 146.553 11.508C146.553 12.46 146.145 13.31 145.329 14.058C144.547 14.806 143.578 15.18 142.422 15.18Z"/>
<path d="M155.873 44.148C154.717 44.148 153.765 43.893 153.017 43.383C152.303 42.873 151.946 42.312 151.946 41.7V22.269C151.946 21.555 152.303 20.977 153.017 20.535C153.765 20.093 154.717 19.872 155.873 19.872C156.825 19.872 157.641 20.093 158.321 20.535C159.001 20.977 159.341 21.555 159.341 22.269V23.442C159.817 22.456 160.65 21.572 161.84 20.79C163.03 19.974 164.475 19.566 166.175 19.566C167.739 19.566 169.167 20.059 170.459 21.045C171.785 21.997 172.839 23.289 173.621 24.921C174.437 26.519 174.845 28.304 174.845 30.276V41.7C174.845 42.516 174.42 43.128 173.57 43.536C172.754 43.944 171.853 44.148 170.867 44.148C169.949 44.148 169.065 43.944 168.215 43.536C167.365 43.128 166.94 42.516 166.94 41.7V30.276C166.94 29.29 166.583 28.406 165.869 27.624C165.155 26.842 164.288 26.451 163.268 26.451C162.418 26.451 161.636 26.791 160.922 27.471C160.208 28.151 159.851 29.086 159.851 30.276V41.7C159.851 42.312 159.46 42.873 158.678 43.383C157.896 43.893 156.961 44.148 155.873 44.148Z"/>
<path d="M185.34 44.658C183.572 44.658 182.042 44.114 180.75 43.026C179.458 41.904 178.812 40.187 178.812 37.875C178.812 35.869 179.322 34.305 180.342 33.183C181.362 32.061 182.756 31.279 184.524 30.837C186.326 30.395 188.4 30.174 190.746 30.174H192.582V29.664C192.582 28.78 192.31 27.93 191.766 27.114C191.222 26.298 190.219 25.89 188.757 25.89C187.363 25.89 186.326 26.026 185.646 26.298C184.966 26.57 184.439 26.859 184.065 27.165C183.691 27.437 183.266 27.573 182.79 27.573C181.94 27.573 181.277 27.148 180.801 26.298C180.359 25.448 180.138 24.564 180.138 23.646C180.138 22.83 180.597 22.116 181.515 21.504C182.467 20.892 183.606 20.416 184.932 20.076C186.292 19.736 187.601 19.566 188.859 19.566C191.647 19.566 193.891 20.042 195.591 20.994C197.291 21.946 198.532 23.187 199.314 24.717C200.096 26.213 200.487 27.828 200.487 29.562V41.7C200.487 42.38 200.113 42.958 199.365 43.434C198.651 43.91 197.733 44.148 196.611 44.148C195.625 44.148 194.792 43.91 194.112 43.434C193.432 42.958 193.092 42.38 193.092 41.7V40.578C192.174 41.632 191.103 42.584 189.879 43.434C188.655 44.25 187.142 44.658 185.34 44.658ZM188.757 38.895C189.301 38.895 189.862 38.691 190.44 38.283C191.018 37.841 191.511 37.263 191.919 36.549C192.361 35.835 192.582 35.053 192.582 34.203V33.999H192.378C191.426 33.999 190.508 34.067 189.624 34.203C188.774 34.305 188.077 34.56 187.533 34.968C187.023 35.342 186.768 35.937 186.768 36.753C186.768 37.501 186.955 38.045 187.329 38.385C187.703 38.725 188.179 38.895 188.757 38.895Z"/>
<path d="M207.116 44.148C206.164 44.148 205.484 43.859 205.076 43.281C204.702 42.669 204.515 42.04 204.515 41.394C204.515 40.748 204.651 40.153 204.923 39.609C205.229 39.065 205.552 38.572 205.892 38.13L214.919 26.247H207.116C206.504 26.247 205.977 25.941 205.535 25.329C205.093 24.683 204.872 23.918 204.872 23.034C204.872 22.184 205.076 21.453 205.484 20.841C205.892 20.195 206.436 19.872 207.116 19.872H222.365C223.011 19.872 223.572 20.093 224.048 20.535C224.558 20.943 224.813 21.589 224.813 22.473C224.813 23.629 224.388 24.768 223.538 25.89L214.46 37.773H223.487C224.099 37.773 224.626 38.096 225.068 38.742C225.51 39.354 225.731 40.102 225.731 40.986C225.731 41.836 225.527 42.584 225.119 43.23C224.711 43.842 224.167 44.148 223.487 44.148H207.116Z"/>
<path d="M241.125 44.658C239.017 44.658 237.079 44.165 235.311 43.179C233.543 42.159 232.132 40.833 231.078 39.201C230.024 37.569 229.497 35.818 229.497 33.948V22.32C229.497 21.708 229.888 21.147 230.67 20.637C231.452 20.127 232.387 19.872 233.475 19.872C234.529 19.872 235.447 20.127 236.229 20.637C237.011 21.147 237.402 21.708 237.402 22.32V33.948C237.402 34.9 237.759 35.784 238.473 36.6C239.221 37.382 240.105 37.773 241.125 37.773C242.145 37.773 243.012 37.382 243.726 36.6C244.44 35.784 244.797 34.9 244.797 33.948V22.269C244.797 21.623 245.188 21.062 245.97 20.586C246.786 20.11 247.721 19.872 248.775 19.872C249.931 19.872 250.866 20.11 251.58 20.586C252.328 21.062 252.702 21.623 252.702 22.269V33.948C252.702 35.852 252.175 37.62 251.121 39.252C250.067 40.884 248.656 42.193 246.888 43.179C245.154 44.165 243.233 44.658 241.125 44.658Z"/>
<path d="M261.921 44.148C260.799 44.148 259.864 43.893 259.116 43.383C258.402 42.873 258.045 42.312 258.045 41.7V22.269C258.045 21.555 258.402 20.977 259.116 20.535C259.864 20.093 260.799 19.872 261.921 19.872C262.907 19.872 263.74 20.093 264.42 20.535C265.1 20.977 265.44 21.555 265.44 22.269V24.156C265.78 23.408 266.256 22.694 266.868 22.014C267.514 21.3 268.228 20.722 269.01 20.28C269.826 19.804 270.659 19.566 271.509 19.566H272.988C273.736 19.566 274.382 19.906 274.926 20.586C275.504 21.266 275.793 22.065 275.793 22.983C275.793 23.935 275.504 24.751 274.926 25.431C274.382 26.111 273.736 26.451 272.988 26.451H271.509C270.591 26.451 269.707 26.774 268.857 27.42C268.007 28.032 267.31 28.899 266.766 30.021C266.222 31.143 265.95 32.486 265.95 34.05V41.7C265.95 42.312 265.559 42.873 264.777 43.383C263.995 43.893 263.043 44.148 261.921 44.148Z"/>
</mask>
<path d="M18.69 44.658C16.922 44.658 15.29 44.437 13.794 43.995C12.332 43.553 11.159 42.975 10.275 42.261C9.425 41.547 9 40.782 9 39.966C9 39.558 9.102 39.082 9.306 38.538C9.544 37.994 9.85 37.518 10.224 37.11C10.632 36.702 11.091 36.498 11.601 36.498C12.145 36.498 12.689 36.702 13.233 37.11C13.777 37.484 14.44 37.858 15.222 38.232C16.038 38.606 17.126 38.793 18.486 38.793C19.846 38.793 20.713 38.606 21.087 38.232C21.461 37.824 21.648 37.45 21.648 37.11C21.648 36.532 21.359 36.09 20.781 35.784C20.203 35.444 19.455 35.172 18.537 34.968C17.653 34.73 16.701 34.475 15.681 34.203C14.661 33.897 13.692 33.489 12.774 32.979C11.89 32.469 11.159 31.772 10.581 30.888C10.003 30.004 9.714 28.848 9.714 27.42C9.714 26.162 10.003 24.938 10.581 23.748C11.193 22.524 12.196 21.521 13.59 20.739C14.984 19.957 16.888 19.566 19.302 19.566C20.798 19.566 22.192 19.719 23.484 20.025C24.81 20.331 25.881 20.773 26.697 21.351C27.547 21.895 27.972 22.524 27.972 23.238C27.972 23.578 27.853 24.054 27.615 24.666C27.411 25.244 27.088 25.771 26.646 26.247C26.238 26.723 25.728 26.961 25.116 26.961C24.674 26.961 24.181 26.842 23.637 26.604C23.093 26.332 22.481 26.077 21.801 25.839C21.121 25.567 20.322 25.431 19.404 25.431C18.384 25.431 17.636 25.618 17.16 25.992C16.718 26.332 16.497 26.689 16.497 27.063C16.497 27.539 16.786 27.913 17.364 28.185C17.942 28.423 18.69 28.661 19.608 28.899C20.526 29.103 21.495 29.358 22.515 29.664C23.535 29.936 24.504 30.361 25.422 30.939C26.34 31.483 27.088 32.231 27.666 33.183C28.244 34.101 28.533 35.308 28.533 36.804C28.533 39.184 27.683 41.088 25.983 42.516C24.317 43.944 21.886 44.658 18.69 44.658Z" fill="white"/>
<path d="M37.0153 55.215C35.8933 55.215 34.9583 54.96 34.2103 54.45C33.4963 53.94 33.1393 53.379 33.1393 52.767V22.269C33.1393 21.555 33.4963 20.977 34.2103 20.535C34.9583 20.093 35.8593 19.872 36.9133 19.872C37.9673 19.872 38.8343 20.093 39.5143 20.535C40.1943 20.977 40.5343 21.555 40.5343 22.269V23.442C41.1123 22.456 41.9963 21.572 43.1863 20.79C44.4103 19.974 45.8213 19.566 47.4193 19.566C49.1533 19.566 50.7003 20.059 52.0603 21.045C53.4543 21.997 54.5423 23.289 55.3243 24.921C56.1403 26.519 56.5483 28.304 56.5483 30.276V33.846C56.5483 35.716 56.1403 37.484 55.3243 39.15C54.5083 40.782 53.4203 42.108 52.0603 43.128C50.7343 44.148 49.2723 44.658 47.6743 44.658C46.1783 44.658 44.8183 44.25 43.5943 43.434C42.3703 42.584 41.5203 41.632 41.0443 40.578V52.767C41.0443 53.379 40.6533 53.94 39.8713 54.45C39.0893 54.96 38.1373 55.215 37.0153 55.215ZM44.8693 37.773C45.8553 37.773 46.7223 37.365 47.4703 36.549C48.2523 35.733 48.6433 34.832 48.6433 33.846V30.276C48.6433 29.29 48.2693 28.406 47.5213 27.624C46.7733 26.842 45.8553 26.451 44.7673 26.451C43.8493 26.451 42.9993 26.791 42.2173 27.471C41.4353 28.151 41.0443 29.086 41.0443 30.276V34.509C41.0443 34.781 41.1973 35.189 41.5033 35.733C41.8433 36.243 42.3023 36.719 42.8803 37.161C43.4583 37.569 44.1213 37.773 44.8693 37.773Z" fill="white"/>
<path d="M65.2086 44.148C64.0526 44.148 63.1006 43.893 62.3526 43.383C61.6386 42.873 61.2816 42.312 61.2816 41.7V22.269C61.2816 21.555 61.6386 20.977 62.3526 20.535C63.1006 20.093 64.0526 19.872 65.2086 19.872C66.2966 19.872 67.2316 20.093 68.0136 20.535C68.7956 20.977 69.1866 21.555 69.1866 22.269V41.7C69.1866 42.312 68.7956 42.873 68.0136 43.383C67.2316 43.893 66.2966 44.148 65.2086 44.148ZM65.2086 15.18C64.0526 15.18 63.0666 14.806 62.2506 14.058C61.4346 13.31 61.0266 12.46 61.0266 11.508C61.0266 10.522 61.4346 9.672 62.2506 8.958C63.0666 8.244 64.0526 7.887 65.2086 7.887C66.3646 7.887 67.3336 8.244 68.1156 8.958C68.9316 9.672 69.3396 10.522 69.3396 11.508C69.3396 12.46 68.9316 13.31 68.1156 14.058C67.3336 14.806 66.3646 15.18 65.2086 15.18Z" fill="white"/>
<path d="M78.6088 44.148C77.4868 44.148 76.5518 43.893 75.8038 43.383C75.0898 42.873 74.7328 42.312 74.7328 41.7V22.269C74.7328 21.555 75.0898 20.977 75.8038 20.535C76.5518 20.093 77.4868 19.872 78.6088 19.872C79.5948 19.872 80.4278 20.093 81.1078 20.535C81.7878 20.977 82.1278 21.555 82.1278 22.269V24.156C82.4678 23.408 82.9438 22.694 83.5558 22.014C84.2018 21.3 84.9158 20.722 85.6978 20.28C86.5138 19.804 87.3468 19.566 88.1968 19.566H89.6758C90.4238 19.566 91.0698 19.906 91.6138 20.586C92.1918 21.266 92.4808 22.065 92.4808 22.983C92.4808 23.935 92.1918 24.751 91.6138 25.431C91.0698 26.111 90.4238 26.451 89.6758 26.451H88.1968C87.2788 26.451 86.3948 26.774 85.5448 27.42C84.6948 28.032 83.9978 28.899 83.4538 30.021C82.9098 31.143 82.6378 32.486 82.6378 34.05V41.7C82.6378 42.312 82.2468 42.873 81.4648 43.383C80.6828 43.893 79.7308 44.148 78.6088 44.148Z" fill="white"/>
<path d="M107.177 44.658C105.069 44.658 103.131 44.165 101.363 43.179C99.5951 42.159 98.1841 40.833 97.1301 39.201C96.0761 37.569 95.5491 35.818 95.5491 33.948V22.32C95.5491 21.708 95.9401 21.147 96.7221 20.637C97.5041 20.127 98.4391 19.872 99.5271 19.872C100.581 19.872 101.499 20.127 102.281 20.637C103.063 21.147 103.454 21.708 103.454 22.32V33.948C103.454 34.9 103.811 35.784 104.525 36.6C105.273 37.382 106.157 37.773 107.177 37.773C108.197 37.773 109.064 37.382 109.778 36.6C110.492 35.784 110.849 34.9 110.849 33.948V22.269C110.849 21.623 111.24 21.062 112.022 20.586C112.838 20.11 113.773 19.872 114.827 19.872C115.983 19.872 116.918 20.11 117.632 20.586C118.38 21.062 118.754 21.623 118.754 22.269V33.948C118.754 35.852 118.227 37.62 117.173 39.252C116.119 40.884 114.708 42.193 112.94 43.179C111.206 44.165 109.285 44.658 107.177 44.658Z" fill="white"/>
<path d="M128.483 44.148C127.327 44.148 126.375 43.893 125.627 43.383C124.913 42.873 124.556 42.312 124.556 41.7V8.397C124.556 7.683 124.913 7.105 125.627 6.663C126.375 6.221 127.327 6 128.483 6C129.571 6 130.506 6.221 131.288 6.663C132.07 7.105 132.461 7.683 132.461 8.397V41.7C132.461 42.312 132.07 42.873 131.288 43.383C130.506 43.893 129.571 44.148 128.483 44.148Z" fill="white"/>
<path d="M142.422 44.148C141.266 44.148 140.314 43.893 139.566 43.383C138.852 42.873 138.495 42.312 138.495 41.7V22.269C138.495 21.555 138.852 20.977 139.566 20.535C140.314 20.093 141.266 19.872 142.422 19.872C143.51 19.872 144.445 20.093 145.227 20.535C146.008 20.977 146.4 21.555 146.4 22.269V41.7C146.4 42.312 146.008 42.873 145.227 43.383C144.445 43.893 143.51 44.148 142.422 44.148ZM142.422 15.18C141.266 15.18 140.279 14.806 139.464 14.058C138.648 13.31 138.24 12.46 138.24 11.508C138.24 10.522 138.648 9.672 139.464 8.958C140.279 8.244 141.266 7.887 142.422 7.887C143.578 7.887 144.547 8.244 145.329 8.958C146.145 9.672 146.553 10.522 146.553 11.508C146.553 12.46 146.145 13.31 145.329 14.058C144.547 14.806 143.578 15.18 142.422 15.18Z" fill="white"/>
<path d="M155.873 44.148C154.717 44.148 153.765 43.893 153.017 43.383C152.303 42.873 151.946 42.312 151.946 41.7V22.269C151.946 21.555 152.303 20.977 153.017 20.535C153.765 20.093 154.717 19.872 155.873 19.872C156.825 19.872 157.641 20.093 158.321 20.535C159.001 20.977 159.341 21.555 159.341 22.269V23.442C159.817 22.456 160.65 21.572 161.84 20.79C163.03 19.974 164.475 19.566 166.175 19.566C167.739 19.566 169.167 20.059 170.459 21.045C171.785 21.997 172.839 23.289 173.621 24.921C174.437 26.519 174.845 28.304 174.845 30.276V41.7C174.845 42.516 174.42 43.128 173.57 43.536C172.754 43.944 171.853 44.148 170.867 44.148C169.949 44.148 169.065 43.944 168.215 43.536C167.365 43.128 166.94 42.516 166.94 41.7V30.276C166.94 29.29 166.583 28.406 165.869 27.624C165.155 26.842 164.288 26.451 163.268 26.451C162.418 26.451 161.636 26.791 160.922 27.471C160.208 28.151 159.851 29.086 159.851 30.276V41.7C159.851 42.312 159.46 42.873 158.678 43.383C157.896 43.893 156.961 44.148 155.873 44.148Z" fill="white"/>
<path d="M185.34 44.658C183.572 44.658 182.042 44.114 180.75 43.026C179.458 41.904 178.812 40.187 178.812 37.875C178.812 35.869 179.322 34.305 180.342 33.183C181.362 32.061 182.756 31.279 184.524 30.837C186.326 30.395 188.4 30.174 190.746 30.174H192.582V29.664C192.582 28.78 192.31 27.93 191.766 27.114C191.222 26.298 190.219 25.89 188.757 25.89C187.363 25.89 186.326 26.026 185.646 26.298C184.966 26.57 184.439 26.859 184.065 27.165C183.691 27.437 183.266 27.573 182.79 27.573C181.94 27.573 181.277 27.148 180.801 26.298C180.359 25.448 180.138 24.564 180.138 23.646C180.138 22.83 180.597 22.116 181.515 21.504C182.467 20.892 183.606 20.416 184.932 20.076C186.292 19.736 187.601 19.566 188.859 19.566C191.647 19.566 193.891 20.042 195.591 20.994C197.291 21.946 198.532 23.187 199.314 24.717C200.096 26.213 200.487 27.828 200.487 29.562V41.7C200.487 42.38 200.113 42.958 199.365 43.434C198.651 43.91 197.733 44.148 196.611 44.148C195.625 44.148 194.792 43.91 194.112 43.434C193.432 42.958 193.092 42.38 193.092 41.7V40.578C192.174 41.632 191.103 42.584 189.879 43.434C188.655 44.25 187.142 44.658 185.34 44.658ZM188.757 38.895C189.301 38.895 189.862 38.691 190.44 38.283C191.018 37.841 191.511 37.263 191.919 36.549C192.361 35.835 192.582 35.053 192.582 34.203V33.999H192.378C191.426 33.999 190.508 34.067 189.624 34.203C188.774 34.305 188.077 34.56 187.533 34.968C187.023 35.342 186.768 35.937 186.768 36.753C186.768 37.501 186.955 38.045 187.329 38.385C187.703 38.725 188.179 38.895 188.757 38.895Z" fill="white"/>
<path d="M207.116 44.148C206.164 44.148 205.484 43.859 205.076 43.281C204.702 42.669 204.515 42.04 204.515 41.394C204.515 40.748 204.651 40.153 204.923 39.609C205.229 39.065 205.552 38.572 205.892 38.13L214.919 26.247H207.116C206.504 26.247 205.977 25.941 205.535 25.329C205.093 24.683 204.872 23.918 204.872 23.034C204.872 22.184 205.076 21.453 205.484 20.841C205.892 20.195 206.436 19.872 207.116 19.872H222.365C223.011 19.872 223.572 20.093 224.048 20.535C224.558 20.943 224.813 21.589 224.813 22.473C224.813 23.629 224.388 24.768 223.538 25.89L214.46 37.773H223.487C224.099 37.773 224.626 38.096 225.068 38.742C225.51 39.354 225.731 40.102 225.731 40.986C225.731 41.836 225.527 42.584 225.119 43.23C224.711 43.842 224.167 44.148 223.487 44.148H207.116Z" fill="white"/>
<path d="M241.125 44.658C239.017 44.658 237.079 44.165 235.311 43.179C233.543 42.159 232.132 40.833 231.078 39.201C230.024 37.569 229.497 35.818 229.497 33.948V22.32C229.497 21.708 229.888 21.147 230.67 20.637C231.452 20.127 232.387 19.872 233.475 19.872C234.529 19.872 235.447 20.127 236.229 20.637C237.011 21.147 237.402 21.708 237.402 22.32V33.948C237.402 34.9 237.759 35.784 238.473 36.6C239.221 37.382 240.105 37.773 241.125 37.773C242.145 37.773 243.012 37.382 243.726 36.6C244.44 35.784 244.797 34.9 244.797 33.948V22.269C244.797 21.623 245.188 21.062 245.97 20.586C246.786 20.11 247.721 19.872 248.775 19.872C249.931 19.872 250.866 20.11 251.58 20.586C252.328 21.062 252.702 21.623 252.702 22.269V33.948C252.702 35.852 252.175 37.62 251.121 39.252C250.067 40.884 248.656 42.193 246.888 43.179C245.154 44.165 243.233 44.658 241.125 44.658Z" fill="white"/>
<path d="M261.921 44.148C260.799 44.148 259.864 43.893 259.116 43.383C258.402 42.873 258.045 42.312 258.045 41.7V22.269C258.045 21.555 258.402 20.977 259.116 20.535C259.864 20.093 260.799 19.872 261.921 19.872C262.907 19.872 263.74 20.093 264.42 20.535C265.1 20.977 265.44 21.555 265.44 22.269V24.156C265.78 23.408 266.256 22.694 266.868 22.014C267.514 21.3 268.228 20.722 269.01 20.28C269.826 19.804 270.659 19.566 271.509 19.566H272.988C273.736 19.566 274.382 19.906 274.926 20.586C275.504 21.266 275.793 22.065 275.793 22.983C275.793 23.935 275.504 24.751 274.926 25.431C274.382 26.111 273.736 26.451 272.988 26.451H271.509C270.591 26.451 269.707 26.774 268.857 27.42C268.007 28.032 267.31 28.899 266.766 30.021C266.222 31.143 265.95 32.486 265.95 34.05V41.7C265.95 42.312 265.559 42.873 264.777 43.383C263.995 43.893 263.043 44.148 261.921 44.148Z" fill="white"/>
<path d="M18.69 44.658C16.922 44.658 15.29 44.437 13.794 43.995C12.332 43.553 11.159 42.975 10.275 42.261C9.425 41.547 9 40.782 9 39.966C9 39.558 9.102 39.082 9.306 38.538C9.544 37.994 9.85 37.518 10.224 37.11C10.632 36.702 11.091 36.498 11.601 36.498C12.145 36.498 12.689 36.702 13.233 37.11C13.777 37.484 14.44 37.858 15.222 38.232C16.038 38.606 17.126 38.793 18.486 38.793C19.846 38.793 20.713 38.606 21.087 38.232C21.461 37.824 21.648 37.45 21.648 37.11C21.648 36.532 21.359 36.09 20.781 35.784C20.203 35.444 19.455 35.172 18.537 34.968C17.653 34.73 16.701 34.475 15.681 34.203C14.661 33.897 13.692 33.489 12.774 32.979C11.89 32.469 11.159 31.772 10.581 30.888C10.003 30.004 9.714 28.848 9.714 27.42C9.714 26.162 10.003 24.938 10.581 23.748C11.193 22.524 12.196 21.521 13.59 20.739C14.984 19.957 16.888 19.566 19.302 19.566C20.798 19.566 22.192 19.719 23.484 20.025C24.81 20.331 25.881 20.773 26.697 21.351C27.547 21.895 27.972 22.524 27.972 23.238C27.972 23.578 27.853 24.054 27.615 24.666C27.411 25.244 27.088 25.771 26.646 26.247C26.238 26.723 25.728 26.961 25.116 26.961C24.674 26.961 24.181 26.842 23.637 26.604C23.093 26.332 22.481 26.077 21.801 25.839C21.121 25.567 20.322 25.431 19.404 25.431C18.384 25.431 17.636 25.618 17.16 25.992C16.718 26.332 16.497 26.689 16.497 27.063C16.497 27.539 16.786 27.913 17.364 28.185C17.942 28.423 18.69 28.661 19.608 28.899C20.526 29.103 21.495 29.358 22.515 29.664C23.535 29.936 24.504 30.361 25.422 30.939C26.34 31.483 27.088 32.231 27.666 33.183C28.244 34.101 28.533 35.308 28.533 36.804C28.533 39.184 27.683 41.088 25.983 42.516C24.317 43.944 21.886 44.658 18.69 44.658Z" stroke="#060F39" stroke-width="10.2" mask="url(#path-1-outside-1)"/>
<path d="M37.0153 55.215C35.8933 55.215 34.9583 54.96 34.2103 54.45C33.4963 53.94 33.1393 53.379 33.1393 52.767V22.269C33.1393 21.555 33.4963 20.977 34.2103 20.535C34.9583 20.093 35.8593 19.872 36.9133 19.872C37.9673 19.872 38.8343 20.093 39.5143 20.535C40.1943 20.977 40.5343 21.555 40.5343 22.269V23.442C41.1123 22.456 41.9963 21.572 43.1863 20.79C44.4103 19.974 45.8213 19.566 47.4193 19.566C49.1533 19.566 50.7003 20.059 52.0603 21.045C53.4543 21.997 54.5423 23.289 55.3243 24.921C56.1403 26.519 56.5483 28.304 56.5483 30.276V33.846C56.5483 35.716 56.1403 37.484 55.3243 39.15C54.5083 40.782 53.4203 42.108 52.0603 43.128C50.7343 44.148 49.2723 44.658 47.6743 44.658C46.1783 44.658 44.8183 44.25 43.5943 43.434C42.3703 42.584 41.5203 41.632 41.0443 40.578V52.767C41.0443 53.379 40.6533 53.94 39.8713 54.45C39.0893 54.96 38.1373 55.215 37.0153 55.215ZM44.8693 37.773C45.8553 37.773 46.7223 37.365 47.4703 36.549C48.2523 35.733 48.6433 34.832 48.6433 33.846V30.276C48.6433 29.29 48.2693 28.406 47.5213 27.624C46.7733 26.842 45.8553 26.451 44.7673 26.451C43.8493 26.451 42.9993 26.791 42.2173 27.471C41.4353 28.151 41.0443 29.086 41.0443 30.276V34.509C41.0443 34.781 41.1973 35.189 41.5033 35.733C41.8433 36.243 42.3023 36.719 42.8803 37.161C43.4583 37.569 44.1213 37.773 44.8693 37.773Z" stroke="#060F39" stroke-width="10.2" mask="url(#path-1-outside-1)"/>
<path d="M65.2086 44.148C64.0526 44.148 63.1006 43.893 62.3526 43.383C61.6386 42.873 61.2816 42.312 61.2816 41.7V22.269C61.2816 21.555 61.6386 20.977 62.3526 20.535C63.1006 20.093 64.0526 19.872 65.2086 19.872C66.2966 19.872 67.2316 20.093 68.0136 20.535C68.7956 20.977 69.1866 21.555 69.1866 22.269V41.7C69.1866 42.312 68.7956 42.873 68.0136 43.383C67.2316 43.893 66.2966 44.148 65.2086 44.148ZM65.2086 15.18C64.0526 15.18 63.0666 14.806 62.2506 14.058C61.4346 13.31 61.0266 12.46 61.0266 11.508C61.0266 10.522 61.4346 9.672 62.2506 8.958C63.0666 8.244 64.0526 7.887 65.2086 7.887C66.3646 7.887 67.3336 8.244 68.1156 8.958C68.9316 9.672 69.3396 10.522 69.3396 11.508C69.3396 12.46 68.9316 13.31 68.1156 14.058C67.3336 14.806 66.3646 15.18 65.2086 15.18Z" stroke="#060F39" stroke-width="10.2" mask="url(#path-1-outside-1)"/>
<path d="M78.6088 44.148C77.4868 44.148 76.5518 43.893 75.8038 43.383C75.0898 42.873 74.7328 42.312 74.7328 41.7V22.269C74.7328 21.555 75.0898 20.977 75.8038 20.535C76.5518 20.093 77.4868 19.872 78.6088 19.872C79.5948 19.872 80.4278 20.093 81.1078 20.535C81.7878 20.977 82.1278 21.555 82.1278 22.269V24.156C82.4678 23.408 82.9438 22.694 83.5558 22.014C84.2018 21.3 84.9158 20.722 85.6978 20.28C86.5138 19.804 87.3468 19.566 88.1968 19.566H89.6758C90.4238 19.566 91.0698 19.906 91.6138 20.586C92.1918 21.266 92.4808 22.065 92.4808 22.983C92.4808 23.935 92.1918 24.751 91.6138 25.431C91.0698 26.111 90.4238 26.451 89.6758 26.451H88.1968C87.2788 26.451 86.3948 26.774 85.5448 27.42C84.6948 28.032 83.9978 28.899 83.4538 30.021C82.9098 31.143 82.6378 32.486 82.6378 34.05V41.7C82.6378 42.312 82.2468 42.873 81.4648 43.383C80.6828 43.893 79.7308 44.148 78.6088 44.148Z" stroke="#060F39" stroke-width="10.2" mask="url(#path-1-outside-1)"/>
<path d="M107.177 44.658C105.069 44.658 103.131 44.165 101.363 43.179C99.5951 42.159 98.1841 40.833 97.1301 39.201C96.0761 37.569 95.5491 35.818 95.5491 33.948V22.32C95.5491 21.708 95.9401 21.147 96.7221 20.637C97.5041 20.127 98.4391 19.872 99.5271 19.872C100.581 19.872 101.499 20.127 102.281 20.637C103.063 21.147 103.454 21.708 103.454 22.32V33.948C103.454 34.9 103.811 35.784 104.525 36.6C105.273 37.382 106.157 37.773 107.177 37.773C108.197 37.773 109.064 37.382 109.778 36.6C110.492 35.784 110.849 34.9 110.849 33.948V22.269C110.849 21.623 111.24 21.062 112.022 20.586C112.838 20.11 113.773 19.872 114.827 19.872C115.983 19.872 116.918 20.11 117.632 20.586C118.38 21.062 118.754 21.623 118.754 22.269V33.948C118.754 35.852 118.227 37.62 117.173 39.252C116.119 40.884 114.708 42.193 112.94 43.179C111.206 44.165 109.285 44.658 107.177 44.658Z" stroke="#060F39" stroke-width="10.2" mask="url(#path-1-outside-1)"/>
<path d="M128.483 44.148C127.327 44.148 126.375 43.893 125.627 43.383C124.913 42.873 124.556 42.312 124.556 41.7V8.397C124.556 7.683 124.913 7.105 125.627 6.663C126.375 6.221 127.327 6 128.483 6C129.571 6 130.506 6.221 131.288 6.663C132.07 7.105 132.461 7.683 132.461 8.397V41.7C132.461 42.312 132.07 42.873 131.288 43.383C130.506 43.893 129.571 44.148 128.483 44.148Z" stroke="#060F39" stroke-width="10.2" mask="url(#path-1-outside-1)"/>
<path d="M142.422 44.148C141.266 44.148 140.314 43.893 139.566 43.383C138.852 42.873 138.495 42.312 138.495 41.7V22.269C138.495 21.555 138.852 20.977 139.566 20.535C140.314 20.093 141.266 19.872 142.422 19.872C143.51 19.872 144.445 20.093 145.227 20.535C146.008 20.977 146.4 21.555 146.4 22.269V41.7C146.4 42.312 146.008 42.873 145.227 43.383C144.445 43.893 143.51 44.148 142.422 44.148ZM142.422 15.18C141.266 15.18 140.279 14.806 139.464 14.058C138.648 13.31 138.24 12.46 138.24 11.508C138.24 10.522 138.648 9.672 139.464 8.958C140.279 8.244 141.266 7.887 142.422 7.887C143.578 7.887 144.547 8.244 145.329 8.958C146.145 9.672 146.553 10.522 146.553 11.508C146.553 12.46 146.145 13.31 145.329 14.058C144.547 14.806 143.578 15.18 142.422 15.18Z" stroke="#060F39" stroke-width="10.2" mask="url(#path-1-outside-1)"/>
<path d="M155.873 44.148C154.717 44.148 153.765 43.893 153.017 43.383C152.303 42.873 151.946 42.312 151.946 41.7V22.269C151.946 21.555 152.303 20.977 153.017 20.535C153.765 20.093 154.717 19.872 155.873 19.872C156.825 19.872 157.641 20.093 158.321 20.535C159.001 20.977 159.341 21.555 159.341 22.269V23.442C159.817 22.456 160.65 21.572 161.84 20.79C163.03 19.974 164.475 19.566 166.175 19.566C167.739 19.566 169.167 20.059 170.459 21.045C171.785 21.997 172.839 23.289 173.621 24.921C174.437 26.519 174.845 28.304 174.845 30.276V41.7C174.845 42.516 174.42 43.128 173.57 43.536C172.754 43.944 171.853 44.148 170.867 44.148C169.949 44.148 169.065 43.944 168.215 43.536C167.365 43.128 166.94 42.516 166.94 41.7V30.276C166.94 29.29 166.583 28.406 165.869 27.624C165.155 26.842 164.288 26.451 163.268 26.451C162.418 26.451 161.636 26.791 160.922 27.471C160.208 28.151 159.851 29.086 159.851 30.276V41.7C159.851 42.312 159.46 42.873 158.678 43.383C157.896 43.893 156.961 44.148 155.873 44.148Z" stroke="#060F39" stroke-width="10.2" mask="url(#path-1-outside-1)"/>
<path d="M185.34 44.658C183.572 44.658 182.042 44.114 180.75 43.026C179.458 41.904 178.812 40.187 178.812 37.875C178.812 35.869 179.322 34.305 180.342 33.183C181.362 32.061 182.756 31.279 184.524 30.837C186.326 30.395 188.4 30.174 190.746 30.174H192.582V29.664C192.582 28.78 192.31 27.93 191.766 27.114C191.222 26.298 190.219 25.89 188.757 25.89C187.363 25.89 186.326 26.026 185.646 26.298C184.966 26.57 184.439 26.859 184.065 27.165C183.691 27.437 183.266 27.573 182.79 27.573C181.94 27.573 181.277 27.148 180.801 26.298C180.359 25.448 180.138 24.564 180.138 23.646C180.138 22.83 180.597 22.116 181.515 21.504C182.467 20.892 183.606 20.416 184.932 20.076C186.292 19.736 187.601 19.566 188.859 19.566C191.647 19.566 193.891 20.042 195.591 20.994C197.291 21.946 198.532 23.187 199.314 24.717C200.096 26.213 200.487 27.828 200.487 29.562V41.7C200.487 42.38 200.113 42.958 199.365 43.434C198.651 43.91 197.733 44.148 196.611 44.148C195.625 44.148 194.792 43.91 194.112 43.434C193.432 42.958 193.092 42.38 193.092 41.7V40.578C192.174 41.632 191.103 42.584 189.879 43.434C188.655 44.25 187.142 44.658 185.34 44.658ZM188.757 38.895C189.301 38.895 189.862 38.691 190.44 38.283C191.018 37.841 191.511 37.263 191.919 36.549C192.361 35.835 192.582 35.053 192.582 34.203V33.999H192.378C191.426 33.999 190.508 34.067 189.624 34.203C188.774 34.305 188.077 34.56 187.533 34.968C187.023 35.342 186.768 35.937 186.768 36.753C186.768 37.501 186.955 38.045 187.329 38.385C187.703 38.725 188.179 38.895 188.757 38.895Z" stroke="#060F39" stroke-width="10.2" mask="url(#path-1-outside-1)"/>
<path d="M207.116 44.148C206.164 44.148 205.484 43.859 205.076 43.281C204.702 42.669 204.515 42.04 204.515 41.394C204.515 40.748 204.651 40.153 204.923 39.609C205.229 39.065 205.552 38.572 205.892 38.13L214.919 26.247H207.116C206.504 26.247 205.977 25.941 205.535 25.329C205.093 24.683 204.872 23.918 204.872 23.034C204.872 22.184 205.076 21.453 205.484 20.841C205.892 20.195 206.436 19.872 207.116 19.872H222.365C223.011 19.872 223.572 20.093 224.048 20.535C224.558 20.943 224.813 21.589 224.813 22.473C224.813 23.629 224.388 24.768 223.538 25.89L214.46 37.773H223.487C224.099 37.773 224.626 38.096 225.068 38.742C225.51 39.354 225.731 40.102 225.731 40.986C225.731 41.836 225.527 42.584 225.119 43.23C224.711 43.842 224.167 44.148 223.487 44.148H207.116Z" stroke="#060F39" stroke-width="10.2" mask="url(#path-1-outside-1)"/>
<path d="M241.125 44.658C239.017 44.658 237.079 44.165 235.311 43.179C233.543 42.159 232.132 40.833 231.078 39.201C230.024 37.569 229.497 35.818 229.497 33.948V22.32C229.497 21.708 229.888 21.147 230.67 20.637C231.452 20.127 232.387 19.872 233.475 19.872C234.529 19.872 235.447 20.127 236.229 20.637C237.011 21.147 237.402 21.708 237.402 22.32V33.948C237.402 34.9 237.759 35.784 238.473 36.6C239.221 37.382 240.105 37.773 241.125 37.773C242.145 37.773 243.012 37.382 243.726 36.6C244.44 35.784 244.797 34.9 244.797 33.948V22.269C244.797 21.623 245.188 21.062 245.97 20.586C246.786 20.11 247.721 19.872 248.775 19.872C249.931 19.872 250.866 20.11 251.58 20.586C252.328 21.062 252.702 21.623 252.702 22.269V33.948C252.702 35.852 252.175 37.62 251.121 39.252C250.067 40.884 248.656 42.193 246.888 43.179C245.154 44.165 243.233 44.658 241.125 44.658Z" stroke="#060F39" stroke-width="10.2" mask="url(#path-1-outside-1)"/>
<path d="M261.921 44.148C260.799 44.148 259.864 43.893 259.116 43.383C258.402 42.873 258.045 42.312 258.045 41.7V22.269C258.045 21.555 258.402 20.977 259.116 20.535C259.864 20.093 260.799 19.872 261.921 19.872C262.907 19.872 263.74 20.093 264.42 20.535C265.1 20.977 265.44 21.555 265.44 22.269V24.156C265.78 23.408 266.256 22.694 266.868 22.014C267.514 21.3 268.228 20.722 269.01 20.28C269.826 19.804 270.659 19.566 271.509 19.566H272.988C273.736 19.566 274.382 19.906 274.926 20.586C275.504 21.266 275.793 22.065 275.793 22.983C275.793 23.935 275.504 24.751 274.926 25.431C274.382 26.111 273.736 26.451 272.988 26.451H271.509C270.591 26.451 269.707 26.774 268.857 27.42C268.007 28.032 267.31 28.899 266.766 30.021C266.222 31.143 265.95 32.486 265.95 34.05V41.7C265.95 42.312 265.559 42.873 264.777 43.383C263.995 43.893 263.043 44.148 261.921 44.148Z" stroke="#060F39" stroke-width="10.2" mask="url(#path-1-outside-1)"/>
</g>
<defs>
<filter id="filter0_d" x="0.900024" y="0.899994" width="279.993" height="62.415" filterUnits="userSpaceOnUse" color-interpolation-filters="sRGB">
<feFlood flood-opacity="0" result="BackgroundImageFix"/>
<feColorMatrix in="SourceAlpha" type="matrix" values="0 0 0 0 0 0 0 0 0 0 0 0 0 0 0 0 0 0 127 0"/>
<feOffset dx="-3" dy="3"/>
<feColorMatrix type="matrix" values="0 0 0 0 0.768627 0 0 0 0 0.768627 0 0 0 0 0.768627 0 0 0 1 0"/>
<feBlend mode="normal" in2="BackgroundImageFix" result="effect1_dropShadow"/>
<feBlend mode="normal" in="SourceGraphic" in2="effect1_dropShadow" result="shape"/>
</filter>
</defs>
</svg>
