<svg width="83" height="75" viewBox="0 0 83 75" fill="none" xmlns="http://www.w3.org/2000/svg">
<rect width="83" height="75" rx="11" fill="#29AAA7"/>
<g filter="url(#filter0_d)">
<path d="M40.1633 57.51C37.9533 57.51 35.9133 57.187 34.0433 56.541C32.1733 55.895 30.6773 55.079 29.5553 54.093C28.4333 53.073 27.8723 52.002 27.8723 50.88C27.8723 50.302 28.0253 49.69 28.3313 49.044C28.6373 48.364 29.0453 47.786 29.5553 47.31C30.0993 46.834 30.6943 46.596 31.3403 46.596C31.9523 46.596 32.5133 46.783 33.0233 47.157C33.5673 47.531 34.1453 47.973 34.7573 48.483C35.4033 48.993 36.1343 49.435 36.9503 49.809C37.8003 50.183 38.8203 50.37 40.0103 50.37C40.7923 50.37 41.5573 50.268 42.3053 50.064C43.0873 49.826 43.7163 49.469 44.1923 48.993C44.7023 48.483 44.9573 47.82 44.9573 47.004C44.9573 45.984 44.5663 45.134 43.7843 44.454C43.0023 43.74 41.9993 43.094 40.7753 42.516C39.5513 41.904 38.2423 41.275 36.8483 40.629C35.4883 39.983 34.1963 39.218 32.9723 38.334C31.7483 37.416 30.7453 36.294 29.9633 34.968C29.1813 33.608 28.7903 31.942 28.7903 29.97C28.7903 28.066 29.1643 26.451 29.9123 25.125C30.6603 23.765 31.6633 22.677 32.9213 21.861C34.1793 21.011 35.5733 20.399 37.1033 20.025C38.6673 19.617 40.2483 19.413 41.8463 19.413C42.5263 19.413 43.4273 19.464 44.5493 19.566C45.6713 19.668 46.7933 19.872 47.9153 20.178C49.0713 20.484 50.0403 20.943 50.8223 21.555C51.6043 22.133 51.9953 22.915 51.9953 23.901C51.9953 24.343 51.8763 24.904 51.6383 25.584C51.4343 26.23 51.0943 26.808 50.6183 27.318C50.1763 27.828 49.5813 28.083 48.8333 28.083C48.2213 28.083 47.6433 27.93 47.0993 27.624C46.5893 27.284 45.9263 26.961 45.1103 26.655C44.3283 26.315 43.2403 26.145 41.8463 26.145C40.0443 26.145 38.7353 26.468 37.9193 27.114C37.1373 27.726 36.7463 28.423 36.7463 29.205C36.7463 30.055 37.1373 30.769 37.9193 31.347C38.7013 31.925 39.7043 32.486 40.9283 33.03C42.1523 33.54 43.4443 34.135 44.8043 34.815C46.1983 35.461 47.5073 36.26 48.7313 37.212C49.9553 38.164 50.9583 39.371 51.7403 40.833C52.5223 42.261 52.9133 44.046 52.9133 46.188C52.9133 48.636 52.3523 50.71 51.2303 52.41C50.1423 54.076 48.6463 55.351 46.7423 56.235C44.8383 57.085 42.6453 57.51 40.1633 57.51Z" fill="white"/>
<path d="M34.0433 56.541L32.3781 61.3615L34.0433 56.541ZM29.5553 54.093L26.1247 57.8667L26.1565 57.8956L26.1887 57.9239L29.5553 54.093ZM28.3313 49.044L32.9404 51.2272L32.9617 51.1823L32.9821 51.1369L28.3313 49.044ZM29.5553 47.31L26.1969 43.4719L26.1353 43.5258L26.0755 43.5816L29.5553 47.31ZM33.0233 47.157L30.0074 51.2697L30.07 51.3156L30.134 51.3596L33.0233 47.157ZM34.7573 48.483L31.4924 52.4009L31.5442 52.4441L31.5971 52.4859L34.7573 48.483ZM36.9503 49.809L34.8254 54.4452L34.8607 54.4614L34.8964 54.4771L36.9503 49.809ZM42.3053 50.064L43.6472 54.9843L43.719 54.9647L43.7902 54.943L42.3053 50.064ZM44.1923 48.993L47.7986 52.5992H47.7986L44.1923 48.993ZM43.7843 44.454L40.3455 48.2203L40.3912 48.2619L40.4378 48.3025L43.7843 44.454ZM40.7753 42.516L38.4945 47.0776L38.5458 47.1032L38.5976 47.1277L40.7753 42.516ZM36.8483 40.629L34.6601 45.2357L34.682 45.2461L34.704 45.2563L36.8483 40.629ZM32.9723 38.334L29.9123 42.414L29.9491 42.4416L29.9863 42.4685L32.9723 38.334ZM29.9633 34.968L25.5421 37.5102L25.5561 37.5345L25.5704 37.5587L29.9633 34.968ZM29.9123 25.125L34.3543 27.6307L34.3678 27.6068L34.381 27.5828L29.9123 25.125ZM32.9213 21.861L35.6967 26.1397L35.7369 26.1136L35.7766 26.0868L32.9213 21.861ZM37.1033 20.025L38.3143 24.9791L38.3526 24.9698L38.3907 24.9598L37.1033 20.025ZM47.9153 20.178L46.5734 25.0983L46.5918 25.1033L46.6103 25.1082L47.9153 20.178ZM50.8223 21.555L47.6791 25.5713L47.7345 25.6146L47.7909 25.6563L50.8223 21.555ZM51.6383 25.584L46.8246 23.8992L46.7987 23.9733L46.775 24.0482L51.6383 25.584ZM50.6183 27.318L46.8899 23.8382L46.8258 23.9069L46.7643 23.9778L50.6183 27.318ZM47.0993 27.624L44.2704 31.8675L44.4309 31.9745L44.599 32.069L47.0993 27.624ZM45.1103 26.655L43.0768 31.3321L43.1969 31.3843L43.3196 31.4303L45.1103 26.655ZM37.9193 27.114L41.0625 31.1303L41.0737 31.1215L41.0849 31.1126L37.9193 27.114ZM37.9193 31.347L34.8879 35.4483L34.8879 35.4483L37.9193 31.347ZM40.9283 33.03L38.857 37.6904L38.9116 37.7147L38.9668 37.7377L40.9283 33.03ZM44.8043 34.815L42.5235 39.3766L42.5913 39.4104L42.66 39.4423L44.8043 34.815ZM48.7313 37.212L51.8624 33.1863L51.8624 33.1863L48.7313 37.212ZM51.7403 40.833L47.2432 43.2384L47.2551 43.2606L47.2671 43.2826L51.7403 40.833ZM51.2303 52.41L46.9738 49.6007L46.967 49.611L46.9602 49.6214L51.2303 52.41ZM46.7423 56.235L48.8213 60.892L48.8558 60.8766L48.89 60.8607L46.7423 56.235ZM40.1633 52.41C38.4543 52.41 36.9841 52.1612 35.7086 51.7205L32.3781 61.3615C34.8426 62.2128 37.4523 62.61 40.1633 62.61V52.41ZM35.7086 51.7205C34.2722 51.2243 33.4135 50.6941 32.9219 50.2621L26.1887 57.9239C27.9411 59.4639 30.0744 60.5657 32.3781 61.3615L35.7086 51.7205ZM32.986 50.3193C32.7592 50.1132 32.7538 50.0495 32.8108 50.1583C32.8414 50.2167 32.8842 50.3144 32.9184 50.448C32.953 50.5832 32.9723 50.7304 32.9723 50.88H22.7723C22.7723 53.8928 24.3296 56.2348 26.1247 57.8667L32.986 50.3193ZM32.9723 50.88C32.9723 51.2142 32.8829 51.3486 32.9404 51.2272L23.7223 46.8608C23.1677 48.0314 22.7723 49.3898 22.7723 50.88H32.9723ZM32.9821 51.1369C33.0084 51.0785 33.0274 51.0501 33.0334 51.0416C33.0389 51.0338 33.039 51.0348 33.0351 51.0384L26.0755 43.5816C25.0371 44.5508 24.245 45.6967 23.6805 46.9511L32.9821 51.1369ZM32.9137 51.1481C32.8067 51.2417 32.6053 51.3891 32.3037 51.5097C31.9938 51.6337 31.6608 51.696 31.3403 51.696V41.496C29.3101 41.496 27.5521 42.2861 26.1969 43.4719L32.9137 51.1481ZM31.3403 51.696C31.1175 51.696 30.8649 51.6604 30.6073 51.5745C30.3514 51.4892 30.1499 51.3742 30.0074 51.2697L36.0393 43.0443C34.6858 42.0518 33.0752 41.496 31.3403 41.496V51.696ZM30.134 51.3596C30.5253 51.6286 30.9774 51.9718 31.4924 52.4009L38.0223 44.5651C37.3132 43.9742 36.6093 43.4334 35.9126 42.9544L30.134 51.3596ZM31.5971 52.4859C32.5891 53.269 33.6734 53.9172 34.8254 54.4452L39.0753 45.1728C38.5953 44.9528 38.2176 44.717 37.9175 44.4801L31.5971 52.4859ZM34.8964 54.4771C36.5484 55.204 38.3044 55.47 40.0103 55.47V45.27C39.3362 45.27 39.0522 45.162 39.0043 45.1409L34.8964 54.4771ZM40.0103 55.47C41.2417 55.47 42.4581 55.3086 43.6472 54.9843L40.9634 45.1437C40.6565 45.2274 40.343 45.27 40.0103 45.27V55.47ZM43.7902 54.943C45.2031 54.5131 46.6166 53.7813 47.7986 52.5992L40.5861 45.3868C40.6953 45.2776 40.7916 45.2133 40.8462 45.1824C40.8975 45.1532 40.8976 45.1615 40.8204 45.185L43.7902 54.943ZM47.7986 52.5992C49.3937 51.0041 50.0573 48.979 50.0573 47.004H39.8573C39.8573 46.878 39.878 46.6153 40.006 46.2825C40.1387 45.9375 40.3445 45.6284 40.5861 45.3868L47.7986 52.5992ZM50.0573 47.004C50.0573 44.481 49.0063 42.2363 47.1308 40.6055L40.4378 48.3025C40.3421 48.2193 40.1687 48.0326 40.0308 47.7328C39.8919 47.4309 39.8573 47.1626 39.8573 47.004H50.0573ZM47.2231 40.6877C45.9776 39.5506 44.5159 38.6424 42.9531 37.9043L38.5976 47.1277C39.4827 47.5456 40.027 47.9294 40.3455 48.2203L47.2231 40.6877ZM43.0561 37.9544C41.7819 37.3173 40.427 36.6664 38.9927 36.0017L34.704 45.2563C36.0576 45.8836 37.3208 46.4907 38.4945 47.0776L43.0561 37.9544ZM39.0365 36.0223C37.957 35.5095 36.932 34.9027 35.9583 34.1995L29.9863 42.4685C31.4607 43.5333 33.0196 44.4565 34.6601 45.2357L39.0365 36.0223ZM36.0323 34.254C35.3499 33.7422 34.7987 33.1275 34.3563 32.3773L25.5704 37.5587C26.6919 39.4605 28.1467 41.0898 29.9123 42.414L36.0323 34.254ZM34.3845 32.4258C34.1478 32.0141 33.8903 31.2759 33.8903 29.97H23.6903C23.6903 32.6081 24.2148 35.2019 25.5421 37.5102L34.3845 32.4258ZM33.8903 29.97C33.8903 28.727 34.133 28.023 34.3543 27.6307L25.4703 22.6193C24.1956 24.879 23.6903 27.405 23.6903 29.97H33.8903ZM34.381 27.5828C34.7382 26.9333 35.17 26.4813 35.6967 26.1397L30.1459 17.5823C28.1566 18.8727 26.5824 20.5967 25.4436 22.6672L34.381 27.5828ZM35.7766 26.0868C36.5153 25.5877 37.349 25.2151 38.3143 24.9791L35.8923 15.0709C33.7977 15.5829 31.8433 16.4343 30.066 17.6352L35.7766 26.0868ZM38.3907 24.9598C39.5392 24.6602 40.6877 24.513 41.8463 24.513V14.313C39.8089 14.313 37.7954 14.5738 35.816 15.0902L38.3907 24.9598ZM41.8463 24.513C42.3053 24.513 43.0337 24.5492 44.0876 24.6451L45.0111 14.4869C43.821 14.3788 42.7474 14.313 41.8463 14.313V24.513ZM44.0876 24.6451C44.9027 24.7192 45.7303 24.8684 46.5734 25.0983L49.2572 15.2577C47.8563 14.8756 46.4399 14.6168 45.0111 14.4869L44.0876 24.6451ZM46.6103 25.1082C47.2316 25.2727 47.5408 25.463 47.6791 25.5713L53.9655 17.5387C52.5398 16.423 50.911 15.6953 49.2204 15.2478L46.6103 25.1082ZM47.7909 25.6563C47.6091 25.5219 47.3432 25.2613 47.1405 24.8558C46.939 24.4527 46.8953 24.0978 46.8953 23.901H57.0953C57.0953 21.3239 55.9581 19.0091 53.8537 17.4537L47.7909 25.6563ZM46.8953 23.901C46.8953 23.7848 46.903 23.7005 46.9085 23.6539C46.9141 23.6069 46.919 23.5861 46.9171 23.595C46.9153 23.6034 46.9086 23.6332 46.8933 23.6864C46.8781 23.7392 46.8559 23.8098 46.8246 23.8992L56.452 27.2688C56.7757 26.3438 57.0953 25.1637 57.0953 23.901H46.8953ZM46.775 24.0482C46.7876 24.0085 46.8076 23.9619 46.8345 23.9162C46.8611 23.871 46.8837 23.8449 46.8899 23.8382L54.3467 30.7978C55.3252 29.7495 56.0619 28.5121 56.5016 27.1198L46.775 24.0482ZM46.7643 23.9778C47.0264 23.6754 47.3897 23.3935 47.8316 23.2041C48.26 23.0205 48.6231 22.983 48.8333 22.983V33.183C50.8805 33.183 52.9497 32.415 54.4723 30.6581L46.7643 23.9778ZM48.8333 22.983C48.9574 22.983 49.099 22.9992 49.2459 23.0381C49.3922 23.0768 49.5119 23.1296 49.5997 23.179L44.599 32.069C45.8905 32.7955 47.3274 33.183 48.8333 33.183V22.983ZM49.9283 23.3805C48.9895 22.7547 47.9427 22.2703 46.9011 21.8797L43.3196 31.4303C43.91 31.6517 44.1892 31.8133 44.2704 31.8675L49.9283 23.3805ZM47.1438 21.9779C45.4398 21.2371 43.5505 21.045 41.8463 21.045V31.245C42.3455 31.245 42.6948 31.2761 42.9205 31.3114C43.1529 31.3477 43.1801 31.377 43.0768 31.3321L47.1438 21.9779ZM41.8463 21.045C39.6523 21.045 36.9244 21.3969 34.7537 23.1154L41.0849 31.1126C40.778 31.3556 40.5881 31.375 40.7349 31.3387C40.8816 31.3025 41.2285 31.245 41.8463 31.245V21.045ZM34.7761 23.0977C33.1239 24.3908 31.6463 26.4432 31.6463 29.205H41.8463C41.8463 29.7077 41.7097 30.1948 41.4875 30.5909C41.2834 30.9547 41.078 31.1181 41.0625 31.1303L34.7761 23.0977ZM31.6463 29.205C31.6463 31.9221 33.0193 34.0671 34.8879 35.4483L40.9507 27.2457C41.0403 27.3119 41.2907 27.523 41.5128 27.9284C41.7469 28.356 41.8463 28.813 41.8463 29.205H31.6463ZM34.8879 35.4483C36.0567 36.3122 37.4109 37.0477 38.857 37.6904L42.9996 28.3696C41.9977 27.9243 41.3459 27.5378 40.9507 27.2457L34.8879 35.4483ZM38.9668 37.7377C40.0684 38.1967 41.2534 38.7415 42.5235 39.3766L47.0851 30.2534C45.6352 29.5285 44.2362 28.8833 42.8899 28.3223L38.9668 37.7377ZM42.66 39.4423C43.7001 39.9243 44.6784 40.5208 45.6002 41.2377L51.8624 33.1863C50.3362 31.9992 48.6966 30.9977 46.9487 30.1877L42.66 39.4423ZM45.6002 41.2377C46.2221 41.7214 46.7744 42.3619 47.2432 43.2384L56.2374 38.4276C55.1423 36.3801 53.6885 34.6066 51.8624 33.1863L45.6002 41.2377ZM47.2671 43.2826C47.5284 43.7597 47.8133 44.6409 47.8133 46.188H58.0133C58.0133 43.4511 57.5163 40.7623 56.2135 38.3834L47.2671 43.2826ZM47.8133 46.188C47.8133 47.8415 47.4429 48.8899 46.9738 49.6007L55.4868 55.2193C57.2617 52.5301 58.0133 49.4305 58.0133 46.188H47.8133ZM46.9602 49.6214C46.4232 50.4438 45.6831 51.1039 44.5947 51.6093L48.89 60.8607C51.6096 59.5981 53.8615 57.7082 55.5004 55.1986L46.9602 49.6214ZM44.6633 51.578C43.5259 52.0858 42.0632 52.41 40.1633 52.41V62.61C43.2274 62.61 46.1507 62.0842 48.8213 60.892L44.6633 51.578Z" fill="#060F39"/>
</g>
<defs>
<filter id="filter0_d" x="19.7723" y="14.313" width="38.241" height="50.297" filterUnits="userSpaceOnUse" color-interpolation-filters="sRGB">
<feFlood flood-opacity="0" result="BackgroundImageFix"/>
<feColorMatrix in="SourceAlpha" type="matrix" values="0 0 0 0 0 0 0 0 0 0 0 0 0 0 0 0 0 0 127 0"/>
<feOffset dx="-3" dy="2"/>
<feColorMatrix type="matrix" values="0 0 0 0 0.768627 0 0 0 0 0.768627 0 0 0 0 0.768627 0 0 0 1 0"/>
<feBlend mode="normal" in2="BackgroundImageFix" result="effect1_dropShadow"/>
<feBlend mode="normal" in="SourceGraphic" in2="effect1_dropShadow" result="shape"/>
</filter>
</defs>
</svg>
