<svg id="svg" version="1.1" xmlns="http://www.w3.org/2000/svg" xmlns:xlink="http://www.w3.org/1999/xlink" width="400" height="361.19929453262785" viewBox="0, 0, 400,361.19929453262785"><g id="svgg"><path id="path0" d="M196.748 69.403 C 169.388 71.573,146.439 82.965,132.743 101.175 C 128.267 107.126,123.776 116.063,122.120 122.313 C 121.962 122.909,121.593 124.291,121.299 125.384 C 121.005 126.477,120.574 128.591,120.343 130.081 C 120.111 131.572,119.768 133.672,119.581 134.749 C 119.127 137.362,119.146 151.269,119.608 154.261 C 119.810 155.569,120.153 157.778,120.370 159.169 C 120.586 160.560,121.005 162.593,121.299 163.686 C 121.593 164.779,121.965 166.161,122.127 166.757 C 125.140 177.892,131.861 188.442,142.464 198.683 C 144.009 200.174,145.147 201.495,144.994 201.617 C 144.841 201.740,144.065 202.058,143.270 202.324 C 126.501 207.936,113.166 229.725,114.911 248.660 C 116.106 261.627,122.414 272.166,134.993 282.212 C 142.331 288.073,158.133 295.379,168.925 297.900 C 170.316 298.225,172.023 298.639,172.719 298.820 C 173.415 299.001,174.634 299.255,175.429 299.383 C 176.224 299.512,177.687 299.758,178.681 299.931 C 191.319 302.127,208.071 301.833,221.319 299.184 C 222.313 298.985,223.739 298.720,224.489 298.595 C 225.239 298.469,225.940 298.226,226.046 298.054 C 226.153 297.882,226.572 297.742,226.978 297.742 C 230.399 297.742,244.426 291.526,251.191 287.013 C 253.442 285.511,255.366 284.180,255.465 284.056 C 255.565 283.931,257.028 282.661,258.717 281.235 C 261.574 278.822,264.852 275.453,267.265 272.448 C 267.824 271.752,268.382 271.102,268.506 271.003 C 270.935 269.053,277.824 256.136,279.974 249.503 C 290.675 216.476,280.840 180.332,255.885 160.976 C 252.015 157.973,252.013 157.969,254.658 156.839 C 269.062 150.688,279.395 133.449,279.468 115.447 C 279.529 100.222,272.549 88.379,258.898 80.550 C 256.001 78.888,250.573 76.257,250.027 76.250 C 249.719 76.246,249.313 76.098,249.124 75.922 C 248.277 75.134,239.542 72.748,232.520 71.388 C 222.194 69.387,207.338 68.563,196.748 69.403 M220.235 94.146 C 223.017 94.447,226.025 94.830,226.920 94.997 C 230.109 95.591,234.342 96.511,235.230 96.802 C 235.727 96.965,236.784 97.295,237.579 97.534 C 238.374 97.774,239.350 98.106,239.747 98.272 C 242.842 99.562,244.207 100.186,244.986 100.664 C 245.483 100.969,246.174 101.309,246.522 101.419 C 246.870 101.530,247.154 101.764,247.154 101.939 C 247.154 102.115,247.358 102.261,247.606 102.265 C 247.855 102.269,248.623 102.716,249.314 103.259 C 254.879 107.632,256.643 113.073,254.762 120.061 C 250.751 134.961,241.633 139.383,229.630 132.250 C 228.437 131.542,226.567 130.577,225.474 130.107 C 224.381 129.637,222.920 129.007,222.228 128.706 C 220.936 128.146,219.776 127.811,216.621 127.085 C 213.025 126.257,195.123 126.674,194.551 127.599 C 194.444 127.772,194.039 127.913,193.650 127.913 C 193.262 127.913,192.662 128.058,192.317 128.235 C 191.972 128.412,190.882 128.941,189.895 129.409 C 187.374 130.607,184.224 133.800,183.067 136.329 C 182.065 138.519,181.680 143.502,182.475 143.993 C 182.674 144.116,182.836 144.462,182.836 144.762 C 182.836 148.272,191.241 154.203,204.155 159.808 C 216.901 165.340,227.929 170.957,233.910 174.962 C 245.788 182.916,254.249 193.369,257.248 203.794 C 257.505 204.688,257.849 205.745,258.011 206.143 C 258.983 208.520,259.613 214.901,259.617 222.403 C 259.620 231.384,259.466 232.876,257.946 238.573 C 253.772 254.219,240.770 268.158,226.016 272.804 C 225.221 273.055,224.289 273.402,223.943 273.576 C 223.598 273.751,222.998 273.893,222.610 273.893 C 222.221 273.893,221.814 274.038,221.705 274.215 C 221.596 274.392,220.976 274.626,220.329 274.737 C 219.681 274.847,218.338 275.116,217.344 275.335 C 207.253 277.558,194.565 277.959,184.101 276.386 C 179.334 275.670,174.688 274.583,169.828 273.046 C 166.785 272.084,160.145 269.397,158.356 268.403 C 155.384 266.752,154.405 266.173,153.512 265.540 C 152.985 265.166,152.389 264.860,152.188 264.860 C 151.986 264.860,151.768 264.729,151.701 264.568 C 151.635 264.407,150.845 263.774,149.945 263.161 C 142.177 257.865,137.181 248.086,139.073 241.879 C 139.248 241.302,139.608 240.099,139.872 239.205 C 140.413 237.373,143.020 232.223,143.499 232.039 C 143.671 231.972,143.812 231.762,143.812 231.571 C 143.812 231.225,145.742 228.996,147.392 227.436 C 148.212 226.661,149.932 225.723,152.230 224.797 C 152.786 224.573,154.445 224.390,155.917 224.390 C 158.405 224.390,159.118 224.544,161.518 225.600 C 163.009 226.257,168.978 230.439,170.492 231.888 C 170.758 232.143,171.571 232.794,172.299 233.337 C 173.027 233.879,173.704 234.413,173.803 234.523 C 174.632 235.441,179.600 238.262,183.559 240.063 C 190.767 243.341,204.943 243.039,212.466 239.446 C 219.249 236.206,222.954 227.953,220.440 221.680 C 217.370 214.019,212.064 210.192,189.883 199.638 C 178.282 194.119,173.681 191.712,170.141 189.308 C 168.997 188.531,167.890 187.895,167.680 187.895 C 167.471 187.895,167.299 187.760,167.299 187.595 C 167.299 187.430,166.852 187.066,166.305 186.786 C 165.360 186.303,163.787 185.169,161.354 183.218 C 156.623 179.422,150.767 172.205,148.143 166.938 C 147.301 165.248,146.470 163.584,146.296 163.239 C 146.122 162.894,145.980 162.363,145.980 162.060 C 145.980 161.756,145.833 161.225,145.654 160.880 C 144.530 158.718,143.089 149.435,143.089 144.354 C 143.089 139.195,144.476 130.456,145.654 128.189 C 145.833 127.844,145.980 127.330,145.980 127.047 C 145.980 126.137,148.569 120.959,150.602 117.802 C 155.173 110.706,164.875 102.970,173.442 99.589 C 174.336 99.236,175.556 98.738,176.152 98.483 C 186.445 94.080,203.825 92.370,220.235 94.146 " stroke="none" fill="#040c3c" fill-rule="evenodd"></path><path id="path1" d="M198.010 94.070 C 197.910 94.171,196.446 94.426,194.758 94.636 C 191.920 94.990,190.000 95.327,186.269 96.128 C 185.474 96.299,184.336 96.540,183.740 96.665 C 183.144 96.790,182.331 97.025,181.933 97.186 C 181.536 97.347,180.479 97.678,179.584 97.922 C 178.690 98.166,177.552 98.532,177.055 98.735 C 176.558 98.937,175.827 99.220,175.429 99.364 C 164.041 103.477,153.468 112.604,148.427 122.674 C 146.635 126.256,145.881 128.572,144.487 134.779 C 143.878 137.490,143.874 150.846,144.482 153.930 C 145.890 161.080,147.835 166.222,150.726 170.435 C 151.295 171.266,151.762 172.106,151.762 172.302 C 151.762 172.498,151.889 172.713,152.046 172.779 C 152.202 172.846,152.890 173.631,153.575 174.526 C 155.457 176.984,160.681 182.077,163.324 184.031 C 164.616 184.986,165.919 185.962,166.220 186.199 C 166.521 186.436,167.212 186.861,167.756 187.143 C 168.299 187.425,168.744 187.791,168.744 187.956 C 168.744 188.121,168.918 188.257,169.131 188.257 C 169.344 188.257,170.226 188.744,171.093 189.341 C 171.960 189.937,172.777 190.425,172.909 190.425 C 173.041 190.425,173.636 190.771,174.231 191.194 C 175.224 191.902,186.620 197.651,187.028 197.651 C 187.488 197.651,205.962 206.932,207.292 207.831 C 208.123 208.393,208.904 208.853,209.027 208.853 C 210.751 208.853,218.494 216.308,219.976 219.394 C 226.928 233.875,211.433 246.047,190.605 242.465 C 185.193 241.534,176.252 237.828,175.670 236.274 C 175.604 236.098,175.350 235.953,175.106 235.953 C 174.862 235.953,174.347 235.668,173.961 235.321 C 173.576 234.973,172.665 234.244,171.937 233.700 C 171.209 233.157,170.396 232.504,170.131 232.249 C 169.514 231.658,164.674 228.099,162.782 226.846 C 157.090 223.076,149.044 224.897,144.901 230.894 C 144.421 231.590,143.938 232.240,143.830 232.340 C 143.721 232.439,143.413 232.908,143.146 233.383 C 142.879 233.857,142.374 234.754,142.025 235.377 C 140.204 238.619,138.767 244.915,139.421 246.791 C 139.650 247.447,139.837 248.369,139.837 248.839 C 139.837 249.309,139.981 249.976,140.157 250.321 C 140.332 250.666,140.694 251.436,140.960 252.033 C 142.477 255.431,146.002 259.498,150.006 262.471 C 151.270 263.410,152.550 264.372,152.851 264.609 C 153.151 264.846,153.881 265.285,154.472 265.583 C 155.063 265.881,156.562 266.734,157.803 267.480 C 159.044 268.225,160.202 268.835,160.377 268.835 C 160.552 268.835,161.734 269.301,163.003 269.872 C 180.486 277.729,204.805 278.946,223.848 272.918 C 249.977 264.647,263.676 239.750,258.303 210.298 C 255.977 197.548,249.379 187.360,237.398 178.020 C 236.123 177.026,230.209 173.080,229.995 173.080 C 229.866 173.080,229.080 172.622,228.249 172.062 C 226.763 171.060,224.672 170.013,214.273 165.062 C 208.203 162.172,206.619 161.435,204.878 160.691 C 187.479 153.253,181.621 148.220,181.667 140.748 C 181.709 133.818,187.036 128.818,196.929 126.423 C 201.275 125.371,218.077 125.984,219.494 127.246 C 219.683 127.414,220.132 127.552,220.493 127.552 C 220.853 127.552,221.471 127.715,221.866 127.913 C 222.261 128.112,222.907 128.437,223.301 128.636 C 223.696 128.835,224.265 128.997,224.566 128.997 C 224.867 128.997,225.113 129.160,225.113 129.359 C 225.113 129.557,225.341 129.720,225.621 129.720 C 226.223 129.720,229.215 131.227,229.389 131.617 C 229.455 131.766,229.821 131.888,230.202 131.888 C 230.583 131.888,230.894 132.020,230.894 132.182 C 230.894 132.344,231.497 132.764,232.233 133.115 C 242.517 138.019,250.734 133.270,254.051 120.504 C 256.488 111.124,253.440 105.336,243.541 100.545 C 240.091 98.874,236.471 97.561,235.318 97.561 C 234.896 97.561,234.463 97.420,234.357 97.248 C 234.251 97.076,233.550 96.833,232.800 96.708 C 232.050 96.583,230.623 96.316,229.630 96.116 C 226.335 95.451,223.162 94.956,220.054 94.620 C 216.581 94.246,198.291 93.789,198.010 94.070 " stroke="none" fill="#eeefef" fill-rule="evenodd"></path><path id="path2" d="M42.547 0.264 C 41.603 0.339,40.831 0.555,40.831 0.742 C 40.831 0.930,40.181 1.084,39.386 1.084 C 38.591 1.084,37.940 1.247,37.940 1.445 C 37.940 1.644,37.453 1.807,36.856 1.807 C 36.260 1.807,35.772 1.969,35.772 2.168 C 35.772 2.367,35.285 2.529,34.688 2.529 C 34.092 2.529,33.604 2.692,33.604 2.891 C 33.604 3.089,33.294 3.252,32.916 3.252 C 32.178 3.252,29.167 4.699,28.967 5.149 C 28.901 5.298,28.614 5.420,28.330 5.420 C 27.717 5.420,26.515 6.076,25.515 6.956 C 25.119 7.304,24.619 7.588,24.402 7.588 C 24.185 7.588,23.773 7.913,23.487 8.311 C 23.200 8.708,22.716 9.033,22.410 9.033 C 22.104 9.033,21.415 9.440,20.879 9.937 C 20.343 10.434,19.736 10.840,19.530 10.840 C 19.001 10.840,10.840 19.129,10.840 19.667 C 10.840 19.910,10.434 20.491,9.937 20.958 C 9.440 21.424,9.033 22.043,9.033 22.333 C 9.033 22.623,8.748 23.123,8.399 23.445 C 8.049 23.766,7.522 24.517,7.227 25.113 C 6.931 25.709,6.404 26.460,6.055 26.781 C 5.706 27.103,5.420 27.545,5.420 27.764 C 5.420 27.983,5.095 28.741,4.697 29.449 C 4.300 30.157,3.975 31.056,3.975 31.447 C 3.975 31.839,3.812 32.159,3.613 32.159 C 3.415 32.159,3.252 32.484,3.252 32.882 C 3.252 33.279,3.089 33.604,2.891 33.604 C 2.692 33.604,2.529 34.092,2.529 34.688 C 2.529 35.285,2.367 35.772,2.168 35.772 C 1.969 35.772,1.807 36.260,1.807 36.856 C 1.807 37.453,1.644 37.940,1.445 37.940 C 1.247 37.940,1.084 38.577,1.084 39.356 C 1.084 40.167,0.891 40.835,0.632 40.921 C -0.032 41.143,-0.032 320.194,0.632 320.416 C 0.891 320.502,1.084 321.170,1.084 321.981 C 1.084 322.760,1.247 323.397,1.445 323.397 C 1.644 323.397,1.807 323.884,1.807 324.481 C 1.807 325.077,1.969 325.565,2.168 325.565 C 2.367 325.565,2.529 326.052,2.529 326.649 C 2.529 327.245,2.692 327.733,2.891 327.733 C 3.089 327.733,3.252 328.220,3.252 328.817 C 3.252 329.413,3.415 329.901,3.613 329.901 C 3.812 329.901,3.975 330.226,3.975 330.623 C 3.975 331.021,4.137 331.346,4.336 331.346 C 4.535 331.346,4.697 331.671,4.697 332.069 C 4.697 332.466,4.860 332.791,5.059 332.791 C 5.257 332.791,5.420 333.035,5.420 333.333 C 5.420 333.631,5.583 333.875,5.781 333.875 C 5.980 333.875,6.143 334.170,6.143 334.530 C 6.143 334.890,6.468 335.533,6.865 335.960 C 7.263 336.387,7.588 336.905,7.588 337.112 C 7.588 337.319,7.751 337.489,7.949 337.489 C 8.148 337.489,8.311 337.733,8.311 338.031 C 8.311 338.329,8.473 338.573,8.672 338.573 C 8.871 338.573,9.033 338.778,9.033 339.028 C 9.033 339.279,9.440 339.922,9.937 340.458 C 10.434 340.993,10.840 341.585,10.840 341.772 C 10.840 342.233,19.059 350.497,19.517 350.497 C 19.717 350.497,20.391 350.985,21.014 351.581 C 21.638 352.177,22.369 352.665,22.637 352.665 C 22.906 352.665,23.126 352.796,23.126 352.957 C 23.126 353.117,23.817 353.551,24.661 353.920 C 25.506 354.290,26.460 354.890,26.781 355.254 C 27.103 355.619,27.517 355.917,27.703 355.917 C 28.264 355.917,29.985 356.801,29.988 357.091 C 29.990 357.240,30.479 357.362,31.075 357.362 C 31.671 357.362,32.159 357.525,32.159 357.724 C 32.159 357.922,32.484 358.085,32.882 358.085 C 33.279 358.085,33.604 358.248,33.604 358.446 C 33.604 358.645,34.092 358.808,34.688 358.808 C 35.285 358.808,35.772 358.970,35.772 359.169 C 35.772 359.368,36.260 359.530,36.856 359.530 C 37.453 359.530,37.940 359.693,37.940 359.892 C 37.940 360.090,38.577 360.253,39.356 360.253 C 40.167 360.253,40.835 360.446,40.921 360.705 C 41.143 361.369,358.558 361.369,359.223 360.705 C 359.472 360.456,360.120 360.253,360.665 360.253 C 361.210 360.253,361.756 360.090,361.879 359.892 C 362.002 359.693,362.490 359.530,362.963 359.530 C 363.436 359.530,363.924 359.368,364.047 359.169 C 364.170 358.970,364.658 358.808,365.131 358.808 C 365.604 358.808,366.092 358.645,366.215 358.446 C 366.338 358.248,366.754 358.085,367.140 358.085 C 367.525 358.085,367.841 357.922,367.841 357.724 C 367.841 357.525,368.166 357.362,368.564 357.362 C 368.961 357.362,369.286 357.200,369.286 357.001 C 369.286 356.802,369.612 356.640,370.009 356.640 C 370.407 356.640,370.732 356.477,370.732 356.278 C 370.732 356.079,371.057 355.917,371.454 355.917 C 371.852 355.917,372.177 355.754,372.177 355.556 C 372.177 355.357,372.502 355.194,372.900 355.194 C 373.297 355.194,373.624 355.072,373.627 354.923 C 373.629 354.774,374.320 354.333,375.162 353.942 C 376.005 353.552,377.182 352.850,377.778 352.384 C 378.374 351.917,379.418 351.098,380.098 350.564 C 381.964 349.098,387.715 343.542,387.715 343.205 C 387.715 343.043,388.365 342.239,389.160 341.420 C 389.955 340.601,390.605 339.771,390.605 339.575 C 390.605 339.379,391.067 338.626,391.631 337.902 C 392.196 337.178,393.125 335.610,393.696 334.417 C 394.267 333.225,394.862 332.195,395.018 332.129 C 395.175 332.063,395.303 331.697,395.303 331.316 C 395.303 330.935,395.465 330.623,395.664 330.623 C 395.863 330.623,396.025 330.136,396.025 329.539 C 396.025 328.943,396.188 328.455,396.387 328.455 C 396.585 328.455,396.748 328.130,396.748 327.733 C 396.748 327.335,396.911 327.010,397.109 327.010 C 397.308 327.010,397.471 326.522,397.471 325.926 C 397.471 325.330,397.633 324.842,397.832 324.842 C 398.031 324.842,398.193 324.364,398.193 323.779 C 398.193 323.195,398.356 322.616,398.555 322.493 C 398.753 322.370,398.916 321.662,398.916 320.918 C 398.916 320.175,399.119 319.363,399.368 319.115 C 399.727 318.755,399.819 290.531,399.819 180.410 C 399.819 70.128,399.728 42.126,399.368 42.005 C 399.110 41.920,398.916 41.255,398.916 40.461 C 398.916 39.694,398.753 38.967,398.555 38.844 C 398.356 38.721,398.193 38.142,398.193 37.558 C 398.193 36.973,398.031 36.495,397.832 36.495 C 397.633 36.495,397.471 36.007,397.471 35.411 C 397.471 34.815,397.308 34.327,397.109 34.327 C 396.911 34.327,396.748 33.839,396.748 33.243 C 396.748 32.647,396.585 32.159,396.387 32.159 C 396.188 32.159,396.025 31.834,396.025 31.436 C 396.025 31.039,395.863 30.714,395.664 30.714 C 395.465 30.714,395.303 30.388,395.303 29.991 C 395.303 29.593,395.140 29.268,394.941 29.268 C 394.743 29.268,394.580 28.943,394.580 28.546 C 394.580 28.148,394.457 27.823,394.307 27.823 C 394.157 27.823,393.801 27.298,393.517 26.657 C 393.012 25.514,391.698 23.374,390.972 22.508 C 390.770 22.268,390.604 21.943,390.601 21.786 C 390.599 21.628,389.868 20.708,388.975 19.741 C 388.083 18.773,387.353 17.869,387.353 17.733 C 387.353 17.366,381.503 11.563,381.133 11.563 C 380.960 11.563,380.378 11.153,379.840 10.652 C 379.302 10.151,378.415 9.543,377.868 9.299 C 377.322 9.056,376.874 8.734,376.874 8.584 C 376.874 8.434,376.666 8.311,376.412 8.311 C 376.158 8.311,375.716 7.986,375.429 7.588 C 375.143 7.191,374.619 6.865,374.265 6.865 C 373.912 6.865,373.622 6.703,373.622 6.504 C 373.622 6.305,373.297 6.143,372.900 6.143 C 372.502 6.143,372.177 5.980,372.177 5.781 C 372.177 5.583,371.852 5.420,371.454 5.420 C 371.057 5.420,370.732 5.257,370.732 5.059 C 370.732 4.860,370.407 4.697,370.009 4.697 C 369.612 4.697,369.286 4.535,369.286 4.336 C 369.286 4.137,368.961 3.975,368.564 3.975 C 368.166 3.975,367.841 3.812,367.841 3.613 C 367.841 3.415,367.525 3.252,367.140 3.252 C 366.754 3.252,366.338 3.089,366.215 2.891 C 366.092 2.692,365.595 2.529,365.110 2.529 C 364.625 2.529,364.228 2.367,364.228 2.168 C 364.228 1.969,363.749 1.807,363.165 1.807 C 362.580 1.807,362.002 1.644,361.879 1.445 C 361.756 1.247,361.129 1.084,360.485 1.084 C 359.840 1.084,359.110 0.881,358.862 0.632 C 358.438 0.209,47.774 -0.153,42.547 0.264 M222.403 69.701 C 256.478 73.295,276.764 87.645,279.665 110.208 C 281.539 124.781,273.990 143.332,262.521 152.337 C 259.955 154.352,254.373 157.531,253.388 157.539 C 253.139 157.541,252.936 157.787,252.936 158.085 C 252.936 158.383,253.058 158.628,253.207 158.629 C 253.356 158.630,253.966 159.077,254.562 159.622 C 255.158 160.168,256.255 161.069,256.999 161.625 C 258.909 163.051,264.209 168.459,266.634 171.454 C 269.069 174.464,272.448 179.046,272.448 179.340 C 272.448 179.454,272.915 180.247,273.486 181.102 C 278.049 187.929,282.007 198.860,283.272 208.130 C 283.503 209.819,283.844 212.290,284.032 213.620 C 284.828 219.277,284.410 229.835,283.077 237.760 C 282.603 240.575,282.374 241.688,281.512 245.348 C 280.634 249.077,276.736 258.826,275.278 260.941 C 274.914 261.469,274.616 262.002,274.616 262.127 C 274.616 262.251,273.455 264.096,272.036 266.226 C 265.023 276.753,257.296 283.843,244.806 291.208 C 243.415 292.028,241.170 293.567,239.817 294.628 C 231.235 301.357,218.751 306.756,205.962 309.270 C 190.473 312.315,169.512 311.863,155.917 308.190 C 155.122 307.975,153.902 307.658,153.207 307.484 C 151.233 306.992,146.961 305.700,146.161 305.353 C 145.763 305.180,144.463 304.677,143.270 304.234 C 106.707 290.667,91.458 263.103,104.895 234.869 C 109.574 225.037,116.872 217.305,125.232 213.320 C 130.352 210.879,130.329 210.978,126.625 207.369 C 111.596 192.727,104.428 175.553,104.426 154.186 C 104.424 133.550,111.014 116.959,124.634 103.305 C 129.136 98.792,138.292 91.780,139.682 91.780 C 139.994 91.780,144.284 88.811,145.077 88.046 C 145.474 87.663,147.588 86.170,149.774 84.729 C 159.402 78.382,169.238 74.294,181.391 71.590 C 185.162 70.751,186.418 70.516,189.160 70.139 C 190.750 69.921,193.026 69.592,194.219 69.408 C 196.846 69.004,217.861 69.222,222.403 69.701 " stroke="none" fill="#2caca4" fill-rule="evenodd"></path><path id="path3" d="M197.206 69.277 C 197.856 69.358,198.831 69.356,199.374 69.274 C 199.917 69.191,199.386 69.125,198.193 69.127 C 197.001 69.129,196.557 69.197,197.206 69.277 M213.460 69.277 C 214.106 69.357,215.163 69.357,215.808 69.277 C 216.454 69.197,215.926 69.131,214.634 69.131 C 213.342 69.131,212.814 69.197,213.460 69.277 M223.397 69.987 C 223.744 70.078,224.313 70.078,224.661 69.987 C 225.009 69.896,224.724 69.822,224.029 69.822 C 223.333 69.822,223.049 69.896,223.397 69.987 M257.633 79.823 C 258.130 80.230,258.699 80.563,258.898 80.565 C 259.285 80.567,258.631 80.067,257.453 79.458 C 256.973 79.210,257.033 79.332,257.633 79.823 M268.654 88.166 C 270.235 89.756,271.609 91.057,271.708 91.057 C 271.808 91.057,270.596 89.756,269.015 88.166 C 267.435 86.576,266.060 85.276,265.961 85.276 C 265.862 85.276,267.073 86.576,268.654 88.166 M139.320 92.973 C 132.392 100.003,127.518 107.284,123.551 116.531 C 122.350 119.331,119.950 128.352,120.000 129.878 C 120.033 130.891,120.063 130.862,120.346 129.539 C 121.337 124.907,121.587 123.960,122.870 119.964 C 123.847 116.923,123.870 116.868,126.135 112.195 C 129.832 104.565,132.928 100.255,139.836 93.123 C 141.526 91.378,142.977 89.874,143.059 89.781 C 143.142 89.688,143.080 89.612,142.921 89.612 C 142.762 89.612,141.142 91.124,139.320 92.973 M199.277 93.560 C 197.886 93.674,201.220 93.768,206.685 93.770 C 212.962 93.772,215.357 93.687,213.189 93.540 C 209.113 93.262,202.800 93.271,199.277 93.560 M192.773 94.309 L 191.328 94.568 192.593 94.576 C 193.288 94.581,194.345 94.461,194.941 94.309 C 196.412 93.935,194.863 93.935,192.773 94.309 M219.874 94.326 C 224.197 94.903,227.408 95.427,228.768 95.778 C 229.487 95.964,230.462 96.097,230.936 96.074 C 232.863 95.981,224.087 94.424,220.235 94.176 L 217.344 93.989 219.874 94.326 M188.979 94.934 C 187.121 95.274,184.487 96.069,185.143 96.092 C 185.518 96.105,186.412 95.959,187.131 95.769 C 187.849 95.578,189.088 95.269,189.883 95.083 C 191.341 94.742,190.652 94.628,188.979 94.934 M231.980 96.226 C 232.081 96.333,233.382 96.749,234.871 97.150 C 236.360 97.552,238.137 98.049,238.819 98.256 C 239.502 98.463,239.908 98.501,239.723 98.340 C 239.537 98.179,238.654 97.838,237.760 97.582 C 236.865 97.326,235.727 96.982,235.230 96.819 C 233.930 96.392,231.765 95.997,231.980 96.226 M180.016 97.105 C 177.663 97.917,178.405 97.998,181.051 97.218 C 182.331 96.841,182.972 96.540,182.475 96.550 C 181.978 96.560,180.872 96.810,180.016 97.105 M176.495 98.236 C 176.306 98.409,175.376 98.839,174.427 99.192 C 173.479 99.545,172.767 99.898,172.846 99.976 C 172.924 100.054,174.188 99.633,175.654 99.039 C 177.120 98.445,177.986 97.951,177.579 97.941 C 177.172 97.931,176.684 98.064,176.495 98.236 M170.795 100.704 C 170.233 100.999,169.852 101.319,169.948 101.414 C 170.138 101.604,172.358 100.542,172.358 100.262 C 172.358 99.993,171.901 100.122,170.795 100.704 M243.902 100.262 C 243.902 100.356,244.431 100.691,245.077 101.006 L 246.251 101.579 245.348 100.843 C 244.478 100.134,243.902 99.902,243.902 100.262 M166.847 102.826 C 166.301 103.123,165.854 103.442,165.854 103.535 C 165.854 103.884,166.425 103.665,167.299 102.981 C 168.373 102.141,168.212 102.086,166.847 102.826 M248.233 102.964 C 248.727 103.344,249.203 103.582,249.291 103.495 C 249.495 103.290,248.175 102.282,247.696 102.278 C 247.498 102.276,247.739 102.585,248.233 102.964 M251.129 105.341 C 252.023 106.321,252.796 107.194,252.846 107.280 C 252.895 107.367,253.012 107.362,253.104 107.269 C 253.308 107.066,251.239 104.759,250.226 104.059 C 249.828 103.784,250.235 104.361,251.129 105.341 M161.156 106.594 C 160.091 107.389,159.353 108.040,159.516 108.040 C 159.805 108.040,163.324 105.467,163.324 105.255 C 163.324 105.017,163.009 105.212,161.156 106.594 M155.430 111.854 C 152.338 115.121,147.812 121.554,148.277 122.020 C 148.396 122.138,148.606 121.927,148.745 121.551 C 149.396 119.790,153.627 114.066,156.262 111.382 C 157.872 109.743,159.078 108.401,158.943 108.401 C 158.808 108.401,157.227 109.955,155.430 111.854 M254.923 115.289 C 254.923 117.449,255.034 118.937,255.169 118.596 C 255.503 117.753,255.519 112.297,255.189 111.779 C 255.043 111.550,254.923 113.130,254.923 115.289 M279.805 115.266 C 279.805 117.154,279.866 117.927,279.940 116.983 C 280.015 116.039,280.015 114.494,279.940 113.550 C 279.866 112.606,279.805 113.379,279.805 115.266 M254.267 120.463 C 254.131 120.817,254.030 121.378,254.043 121.710 C 254.058 122.109,254.183 122.018,254.414 121.440 C 254.606 120.960,254.707 120.399,254.639 120.194 C 254.570 119.988,254.403 120.109,254.267 120.463 M253.121 124.202 C 252.768 125.150,252.338 126.080,252.166 126.269 C 251.746 126.728,251.764 127.288,252.190 127.024 C 252.579 126.784,254.117 122.831,253.904 122.618 C 253.826 122.541,253.474 123.253,253.121 124.202 M146.161 126.107 C 146.025 126.534,145.995 126.965,146.095 127.064 C 146.194 127.164,146.386 126.895,146.522 126.468 C 146.658 126.041,146.687 125.609,146.588 125.510 C 146.489 125.411,146.296 125.679,146.161 126.107 M203.162 126.376 C 205.099 126.441,208.270 126.441,210.208 126.376 C 212.145 126.311,210.560 126.258,206.685 126.258 C 202.809 126.258,201.224 126.311,203.162 126.376 M196.387 126.829 L 195.303 127.105 196.387 127.122 C 196.983 127.132,197.796 127.000,198.193 126.829 L 198.916 126.519 198.193 126.536 C 197.796 126.546,196.983 126.678,196.387 126.829 M215.176 126.829 C 215.574 127.000,216.387 127.132,216.983 127.122 L 218.067 127.105 216.983 126.829 C 216.387 126.678,215.574 126.546,215.176 126.536 L 214.453 126.519 215.176 126.829 M193.496 127.552 C 192.799 127.851,192.802 127.863,193.565 127.888 C 194.000 127.902,194.457 127.751,194.580 127.552 C 194.844 127.125,194.491 127.125,193.496 127.552 M218.609 127.552 C 218.907 127.745,219.476 127.893,219.874 127.882 L 220.596 127.862 219.874 127.552 C 218.793 127.088,217.891 127.088,218.609 127.552 M250.577 129.077 C 250.022 129.916,248.744 131.405,247.737 132.386 C 246.730 133.367,246.249 133.986,246.668 133.762 C 247.614 133.255,250.363 130.201,251.240 128.683 C 252.189 127.039,251.755 127.298,250.577 129.077 M145.498 128.154 C 145.366 128.287,145.268 128.734,145.280 129.148 C 145.301 129.840,145.331 129.831,145.649 129.035 C 146.003 128.151,145.930 127.723,145.498 128.154 M188.076 130.081 C 187.480 130.476,187.154 130.797,187.353 130.794 C 187.716 130.788,189.680 129.380,189.341 129.369 C 189.241 129.366,188.672 129.686,188.076 130.081 M227.072 130.839 C 228.646 131.636,230.353 132.577,230.866 132.930 C 232.372 133.967,235.633 135.126,237.579 135.315 L 239.386 135.492 237.218 135.011 C 234.792 134.474,232.076 133.453,231.256 132.770 C 230.569 132.198,224.922 129.354,224.514 129.374 C 224.347 129.382,225.498 130.041,227.072 130.839 M144.782 130.581 C 144.646 130.935,144.545 131.496,144.558 131.827 C 144.573 132.226,144.698 132.135,144.929 131.558 C 145.121 131.078,145.222 130.517,145.153 130.311 C 145.085 130.105,144.918 130.227,144.782 130.581 M119.512 132.204 C 119.363 132.875,119.258 134.013,119.277 134.734 L 119.314 136.043 119.653 134.598 C 119.840 133.803,119.946 132.665,119.888 132.069 L 119.783 130.985 119.512 132.204 M185.366 132.430 C 184.692 133.126,184.237 133.695,184.355 133.695 C 184.474 133.695,185.140 133.126,185.836 132.430 C 186.531 131.734,186.986 131.165,186.846 131.165 C 186.706 131.165,186.040 131.734,185.366 132.430 M144.044 133.771 C 143.922 134.226,143.839 135.167,143.859 135.863 C 143.889 136.887,143.958 136.756,144.221 135.175 C 144.553 133.175,144.441 132.288,144.044 133.771 M244.878 134.284 C 244.753 134.410,243.709 134.732,242.560 135.001 C 240.473 135.488,240.472 135.488,242.198 135.320 C 243.717 135.171,246.524 134.108,245.498 134.070 C 245.283 134.063,245.004 134.159,244.878 134.284 M118.755 139.566 C 118.463 143.315,118.508 147.738,118.865 150.316 C 119.050 151.653,119.156 149.732,119.190 144.444 C 119.245 136.065,119.129 134.766,118.755 139.566 M143.319 139.707 C 143.021 141.879,143.060 147.565,143.384 149.394 C 143.527 150.197,143.643 148.027,143.650 144.425 C 143.664 137.419,143.654 137.266,143.319 139.707 M181.864 140.741 C 181.866 141.933,181.934 142.377,182.014 141.728 C 182.095 141.078,182.093 140.103,182.011 139.560 C 181.928 139.017,181.862 139.548,181.864 140.741 M183.345 146.639 C 183.635 147.200,184.155 147.891,184.500 148.174 C 184.855 148.466,184.687 148.023,184.115 147.154 C 182.956 145.397,182.569 145.138,183.345 146.639 M265.202 149.864 L 263.957 151.220 265.312 149.974 C 266.573 148.815,266.833 148.509,266.557 148.509 C 266.496 148.509,265.887 149.119,265.202 149.864 M186.089 149.800 C 186.089 150.283,190.255 153.224,193.315 154.902 C 194.408 155.501,195.872 156.310,196.567 156.700 C 198.385 157.719,200.995 158.706,200.727 158.273 C 200.602 158.070,200.306 157.899,200.069 157.893 C 198.845 157.861,190.691 153.188,187.624 150.760 C 186.780 150.092,186.089 149.660,186.089 149.800 M143.838 153.237 C 143.851 153.916,144.011 154.797,144.192 155.194 C 144.413 155.681,144.449 155.326,144.301 154.110 C 144.039 151.959,143.802 151.512,143.838 153.237 M119.282 153.957 C 119.176 157.328,121.477 167.111,123.652 172.538 C 127.331 181.718,132.196 188.884,140.518 197.380 C 143.090 200.006,144.441 201.626,144.059 201.626 C 143.719 201.626,143.159 201.772,142.814 201.949 C 142.468 202.127,141.048 202.818,139.657 203.483 C 138.266 204.149,137.073 204.817,137.007 204.967 C 136.941 205.117,136.697 205.241,136.465 205.243 C 135.307 205.254,129.068 210.708,126.112 214.294 C 125.220 215.375,124.401 216.341,124.292 216.441 C 122.671 217.919,117.956 227.005,116.697 231.075 C 116.451 231.870,116.123 232.846,115.966 233.243 C 115.532 234.348,115.215 235.965,115.081 237.760 C 115.015 238.654,115.038 238.979,115.134 238.482 C 118.357 221.769,130.043 206.750,143.270 202.324 C 144.065 202.058,144.841 201.740,144.994 201.617 C 145.147 201.495,144.009 200.174,142.464 198.683 C 131.861 188.442,125.140 177.892,122.127 166.757 C 121.965 166.161,121.590 164.779,121.293 163.686 C 120.997 162.593,120.569 160.479,120.343 158.988 C 119.463 153.181,119.326 152.534,119.282 153.957 M144.566 157.362 C 144.555 157.760,144.703 158.329,144.896 158.627 C 145.360 159.345,145.360 158.442,144.896 157.362 L 144.586 156.640 144.566 157.362 M206.504 161.170 C 207.696 161.746,208.835 162.213,209.033 162.208 C 209.497 162.195,205.179 160.114,204.697 160.118 C 204.499 160.120,205.312 160.593,206.504 161.170 M146.006 162.129 C 145.992 162.564,146.143 163.021,146.341 163.144 C 146.769 163.408,146.769 163.054,146.341 162.060 C 146.042 161.363,146.030 161.365,146.006 162.129 M220.061 167.418 C 220.164 167.525,221.740 168.360,223.564 169.273 C 228.438 171.713,233.206 174.669,238.302 178.410 C 239.693 179.431,240.017 179.591,239.205 178.856 C 237.887 177.662,231.573 173.301,229.195 171.942 C 224.892 169.482,219.459 166.792,220.061 167.418 M149.381 169.405 C 149.671 169.967,150.936 171.782,152.190 173.439 C 155.047 177.210,155.219 177.416,155.518 177.416 C 155.653 177.416,154.984 176.478,154.033 175.331 C 153.082 174.185,151.593 172.152,150.725 170.815 C 149.085 168.287,148.468 167.641,149.381 169.405 M157.001 179.189 C 158.434 180.717,161.879 183.753,161.879 183.489 C 161.879 183.413,160.456 182.068,158.717 180.500 C 156.978 178.932,156.206 178.342,157.001 179.189 M243.492 182.841 C 245.154 184.514,247.581 187.270,248.885 188.966 C 251.426 192.271,252.151 193.124,251.659 192.231 C 250.235 189.644,245.198 183.826,242.096 181.185 C 241.201 180.423,241.830 181.169,243.492 182.841 M162.263 183.823 C 162.290 184.166,165.515 186.548,165.700 186.362 C 165.774 186.289,165.026 185.625,164.037 184.887 C 163.049 184.149,162.250 183.670,162.263 183.823 M169.467 188.729 C 169.467 188.912,171.865 190.519,173.633 191.521 C 176.565 193.182,177.269 193.558,177.868 193.780 C 179.021 194.209,178.523 193.721,177.145 193.073 C 176.400 192.723,174.490 191.642,172.900 190.671 C 171.310 189.700,169.887 188.831,169.738 188.740 C 169.589 188.650,169.467 188.645,169.467 188.729 M251.912 193.225 C 252.395 194.309,254.499 197.654,254.621 197.532 C 254.800 197.353,252.268 192.954,251.985 192.954 C 251.879 192.954,251.846 193.076,251.912 193.225 M180.307 194.932 C 180.307 195.208,182.526 196.276,182.712 196.090 C 182.805 195.996,182.359 195.659,181.719 195.340 C 180.466 194.715,180.307 194.669,180.307 194.932 M190.786 199.989 C 190.786 200.191,194.664 201.995,195.042 201.970 C 195.352 201.950,191.450 199.861,191.057 199.836 C 190.908 199.827,190.786 199.896,190.786 199.989 M255.465 199.956 C 255.465 200.378,256.618 202.761,256.756 202.624 C 256.945 202.435,255.906 199.819,255.641 199.819 C 255.544 199.819,255.465 199.881,255.465 199.956 M196.929 202.837 C 196.929 203.064,200.637 204.904,200.789 204.752 C 200.886 204.655,199.762 204.043,197.200 202.799 C 197.051 202.727,196.929 202.744,196.929 202.837 M201.265 205.061 C 201.265 205.149,201.956 205.545,202.800 205.940 C 203.645 206.335,205.230 207.156,206.323 207.764 C 207.416 208.372,207.920 208.581,207.443 208.229 C 205.747 206.977,201.265 204.678,201.265 205.061 M257.850 206.925 C 258.183 208.310,258.356 208.441,258.356 207.308 C 258.356 206.790,258.187 206.262,257.980 206.134 C 257.734 205.981,257.689 206.254,257.850 206.925 M258.582 210.298 C 258.876 212.322,259.080 212.611,259.073 210.991 C 259.070 210.312,258.905 209.512,258.707 209.214 C 258.454 208.835,258.417 209.162,258.582 210.298 M210.840 210.549 C 211.039 210.736,212.543 211.990,214.182 213.335 C 215.822 214.680,217.170 215.888,217.178 216.020 C 217.186 216.152,217.695 216.829,218.308 217.525 L 219.424 218.790 218.745 217.587 C 218.129 216.494,215.542 213.864,213.117 211.863 C 212.150 211.066,210.180 209.929,210.840 210.549 M259.259 222.408 C 259.259 227.552,259.362 231.281,259.488 230.695 C 259.613 230.109,259.716 226.378,259.716 222.403 C 259.716 218.428,259.613 214.699,259.488 214.116 C 259.362 213.532,259.259 217.264,259.259 222.408 M284.126 217.164 C 284.126 218.455,284.192 218.984,284.272 218.338 C 284.352 217.692,284.352 216.635,284.272 215.989 C 284.192 215.343,284.126 215.872,284.126 217.164 M220.930 226.334 C 220.938 228.298,221.054 229.517,221.186 229.044 C 221.504 227.912,221.495 224.807,221.171 223.668 C 221.027 223.164,220.921 224.344,220.930 226.334 M152.484 224.752 C 151.794 225.198,152.537 225.198,153.930 224.752 L 154.833 224.462 153.930 224.432 C 153.433 224.415,152.782 224.559,152.484 224.752 M157.904 224.752 C 159.297 225.198,160.040 225.198,159.350 224.752 C 159.051 224.559,158.401 224.415,157.904 224.432 L 157.001 224.462 157.904 224.752 M284.126 227.642 C 284.126 228.934,284.192 229.463,284.272 228.817 C 284.352 228.171,284.352 227.114,284.272 226.468 C 284.192 225.822,284.126 226.350,284.126 227.642 M148.148 226.823 C 147.453 227.351,146.317 228.442,145.624 229.248 C 144.463 230.600,144.519 230.573,146.347 228.904 C 147.437 227.908,148.735 226.819,149.232 226.484 C 149.729 226.148,149.973 225.871,149.774 225.868 C 149.575 225.865,148.844 226.294,148.148 226.823 M162.256 226.092 C 162.265 226.249,163.273 227.028,164.498 227.823 C 165.722 228.618,167.626 229.992,168.728 230.876 C 169.830 231.760,171.423 233.039,172.267 233.720 C 173.112 234.400,173.803 234.809,173.803 234.629 C 173.803 234.449,173.356 234.032,172.809 233.703 C 172.263 233.373,171.409 232.727,170.912 232.266 C 168.795 230.303,162.230 225.621,162.256 226.092 M283.733 231.256 C 283.733 231.951,283.808 232.236,283.899 231.888 C 283.989 231.540,283.989 230.971,283.899 230.623 C 283.808 230.276,283.733 230.560,283.733 231.256 M142.794 232.882 C 142.567 233.379,142.441 233.785,142.514 233.785 C 142.586 233.785,142.911 233.379,143.237 232.882 C 143.562 232.385,143.689 231.978,143.517 231.978 C 143.346 231.978,143.020 232.385,142.794 232.882 M258.770 233.424 C 258.736 233.921,258.617 234.734,258.507 235.230 C 258.334 236.009,258.363 236.045,258.715 235.494 C 258.939 235.141,259.058 234.328,258.978 233.687 C 258.865 232.779,258.819 232.721,258.770 233.424 M217.182 236.115 L 215.574 237.940 217.345 236.237 C 218.319 235.300,219.043 234.478,218.953 234.411 C 218.863 234.344,218.066 235.111,217.182 236.115 M258.036 237.098 C 258.013 237.429,257.901 237.998,257.787 238.362 C 257.590 238.990,257.600 238.991,257.992 238.381 C 258.219 238.027,258.331 237.458,258.241 237.116 C 258.095 236.557,258.074 236.555,258.036 237.098 M140.339 237.669 C 140.229 238.017,139.991 238.675,139.808 239.132 C 139.625 239.588,139.490 240.239,139.507 240.577 C 139.527 240.967,139.649 240.862,139.840 240.289 C 140.591 238.045,140.858 237.037,140.704 237.037 C 140.612 237.037,140.448 237.322,140.339 237.669 M178.862 237.931 C 178.862 238.025,179.390 238.360,180.036 238.676 L 181.210 239.249 180.307 238.512 C 179.437 237.803,178.862 237.572,178.862 237.931 M257.314 239.627 C 257.291 239.959,257.178 240.528,257.064 240.892 C 256.867 241.519,256.878 241.520,257.269 240.910 C 257.496 240.556,257.608 239.987,257.519 239.645 C 257.372 239.086,257.352 239.084,257.314 239.627 M114.408 240.696 C 114.106 242.210,114.187 248.912,114.522 250.045 C 114.668 250.542,114.791 248.388,114.795 245.257 C 114.801 239.257,114.770 238.887,114.408 240.696 M208.311 241.012 C 207.855 241.207,207.788 241.322,208.130 241.322 C 208.428 241.322,208.997 241.183,209.395 241.012 C 209.850 240.816,209.917 240.701,209.575 240.701 C 209.277 240.701,208.708 240.841,208.311 241.012 M138.981 242.186 C 138.339 244.581,138.797 248.383,140.091 251.400 C 140.958 253.424,140.887 252.684,139.952 249.955 C 139.204 247.772,139.079 246.838,139.200 244.354 C 139.356 241.184,139.327 240.897,138.981 242.186 M187.895 241.734 C 188.392 241.894,189.124 242.024,189.521 242.024 C 190.093 242.024,190.056 241.963,189.341 241.734 C 188.844 241.575,188.112 241.445,187.715 241.445 C 187.142 241.445,187.180 241.505,187.895 241.734 M205.239 241.734 L 204.336 242.024 205.239 242.034 C 205.736 242.040,206.468 241.905,206.865 241.734 L 207.588 241.424 206.865 241.434 C 206.468 241.440,205.736 241.575,205.239 241.734 M192.231 242.516 C 194.235 242.823,201.063 242.815,202.506 242.505 C 203.089 242.379,200.650 242.274,197.086 242.272 C 193.401 242.269,191.307 242.374,192.231 242.516 M253.421 249.180 C 253.061 250.150,249.847 254.981,248.277 256.911 C 246.289 259.355,245.797 260.166,247.290 258.537 C 249.865 255.727,254.292 249.113,253.877 248.698 C 253.766 248.587,253.561 248.804,253.421 249.180 M114.936 252.188 C 114.905 253.435,114.973 253.709,116.386 257.995 C 121.236 272.706,135.631 286.212,154.110 293.390 C 155.454 293.912,156.636 294.391,157.543 294.783 C 158.346 295.130,163.481 296.832,166.396 297.717 C 168.881 298.472,172.753 299.274,172.952 299.075 C 173.069 298.957,172.781 298.780,172.310 298.681 C 159.494 295.983,143.272 288.824,134.993 282.212 C 124.229 273.616,118.043 264.557,115.621 253.844 C 115.158 251.799,114.957 251.313,114.936 252.188 M140.935 253.117 C 140.936 253.315,141.270 253.884,141.676 254.381 C 142.167 254.981,142.290 255.042,142.042 254.562 C 141.433 253.383,140.932 252.730,140.935 253.117 M143.125 256.549 C 144.188 258.161,147.849 261.729,149.855 263.109 C 152.004 264.588,151.789 264.160,149.503 262.411 C 147.265 260.699,145.595 259.118,143.684 256.900 C 142.565 255.602,142.455 255.533,143.125 256.549 M241.915 263.310 C 240.024 264.969,234.872 268.394,232.260 269.728 C 231.123 270.308,230.258 270.848,230.338 270.929 C 230.736 271.326,238.190 266.725,241.554 264.006 C 242.547 263.203,243.428 262.498,243.511 262.438 C 243.594 262.379,243.594 262.266,243.511 262.186 C 243.428 262.107,242.710 262.612,241.915 263.310 M151.762 264.477 C 151.762 264.688,151.940 264.860,152.157 264.860 C 152.375 264.860,152.985 265.166,153.512 265.540 C 154.399 266.169,155.216 266.653,158.356 268.407 C 160.107 269.385,162.686 270.348,162.426 269.926 C 162.300 269.723,162.043 269.557,161.854 269.557 C 161.237 269.557,158.147 267.995,155.194 266.191 C 153.604 265.220,152.182 264.351,152.033 264.260 C 151.883 264.169,151.762 264.267,151.762 264.477 M166.576 271.877 C 166.576 272.123,170.220 273.260,170.408 273.073 C 170.502 272.979,169.770 272.637,168.781 272.314 C 166.883 271.693,166.576 271.632,166.576 271.877 M224.932 272.809 L 224.210 273.120 224.932 273.140 C 225.330 273.151,225.899 273.002,226.197 272.809 C 226.915 272.345,226.013 272.345,224.932 272.809 M171.274 273.532 C 171.572 273.725,172.060 273.882,172.358 273.882 C 172.840 273.882,172.840 273.843,172.358 273.532 C 172.060 273.339,171.572 273.182,171.274 273.182 C 170.792 273.182,170.792 273.221,171.274 273.532 M173.803 274.255 C 174.101 274.447,174.670 274.596,175.068 274.585 L 175.790 274.565 175.068 274.255 C 173.987 273.791,173.085 273.791,173.803 274.255 M220.596 274.255 C 219.899 274.554,219.902 274.566,220.665 274.591 C 221.101 274.605,221.557 274.453,221.680 274.255 C 221.944 273.827,221.591 273.827,220.596 274.255 M176.874 274.977 C 177.272 275.148,177.922 275.288,178.320 275.288 L 179.042 275.288 178.320 274.977 C 177.922 274.807,177.272 274.667,176.874 274.667 L 176.152 274.667 176.874 274.977 M217.706 274.977 L 216.983 275.288 217.706 275.308 C 218.103 275.319,218.672 275.170,218.970 274.977 C 219.688 274.513,218.786 274.513,217.706 274.977 M180.126 275.700 C 180.524 275.871,181.337 276.003,181.933 275.993 L 183.017 275.976 181.933 275.700 C 181.337 275.548,180.524 275.416,180.126 275.407 L 179.404 275.390 180.126 275.700 M214.092 275.700 L 213.008 275.976 214.092 276.013 C 214.688 276.034,215.420 275.893,215.718 275.700 C 216.389 275.266,215.797 275.266,214.092 275.700 M184.282 276.409 C 185.167 276.706,188.523 276.913,188.226 276.651 C 188.144 276.578,187.019 276.426,185.727 276.312 C 184.254 276.182,183.715 276.218,184.282 276.409 M209.214 276.423 L 207.949 276.689 209.395 276.701 C 210.190 276.707,211.247 276.582,211.743 276.423 C 212.980 276.027,211.096 276.027,209.214 276.423 M192.051 277.192 C 194.391 277.518,202.062 277.525,204.155 277.203 C 205.050 277.065,202.285 276.950,198.013 276.946 C 193.629 276.943,191.031 277.050,192.051 277.192 M258.875 281.210 L 257.814 282.385 258.988 281.324 C 259.634 280.740,260.163 280.211,260.163 280.149 C 260.163 279.870,259.864 280.116,258.875 281.210 M239.747 293.214 C 236.268 294.881,228.198 297.742,226.978 297.742 C 226.572 297.742,226.153 297.882,226.046 298.054 C 225.940 298.226,225.239 298.469,224.489 298.595 C 223.739 298.720,222.313 298.985,221.319 299.184 C 217.723 299.903,215.106 300.325,211.382 300.787 C 208.554 301.138,208.048 301.270,209.395 301.305 C 214.430 301.433,227.067 298.680,234.869 295.755 C 237.731 294.682,237.914 294.605,239.510 293.818 C 240.374 293.393,241.268 293.041,241.498 293.036 C 241.727 293.032,242.322 292.710,242.818 292.322 C 244.190 291.249,243.329 291.499,239.747 293.214 M173.483 299.349 C 173.860 299.726,182.365 301.013,185.446 301.160 L 188.799 301.319 185.908 300.978 C 181.887 300.503,178.196 299.924,176.652 299.525 C 175.309 299.178,173.195 299.060,173.483 299.349 M193.798 301.820 C 196.795 302.047,199.991 302.047,202.832 301.821 C 207.024 301.487,206.810 301.471,198.193 301.470 C 189.409 301.469,189.288 301.479,193.798 301.820 " stroke="none" fill="#7b8899" fill-rule="evenodd"></path><path id="path4" d="M140.011 91.569 C 122.810 100.783,109.617 118.842,105.934 138.211 C 100.888 164.751,107.510 187.742,125.526 206.233 C 129.740 210.558,129.441 210.481,132.429 208.016 C 133.710 206.960,135.209 205.862,135.762 205.578 C 136.314 205.293,136.847 204.975,136.947 204.871 C 137.046 204.768,138.266 204.141,139.657 203.478 C 141.048 202.815,142.468 202.127,142.814 201.949 C 143.159 201.772,143.719 201.626,144.059 201.626 C 144.441 201.626,143.090 200.006,140.518 197.380 C 126.872 183.449,121.048 171.221,119.055 152.322 C 117.820 140.605,119.696 125.694,123.557 116.531 C 127.115 108.087,132.013 100.601,138.324 93.961 C 141.056 91.087,141.143 90.962,140.011 91.569 M203.884 93.853 C 205.027 93.925,206.897 93.925,208.040 93.853 C 209.182 93.782,208.248 93.723,205.962 93.723 C 203.677 93.723,202.742 93.782,203.884 93.853 M194.941 94.309 C 193.439 94.691,194.918 94.708,196.748 94.330 C 197.963 94.078,198.021 94.031,197.109 94.032 C 196.513 94.033,195.537 94.157,194.941 94.309 M216.621 94.311 C 218.082 94.632,220.663 94.785,220.385 94.534 C 220.303 94.459,219.097 94.307,217.706 94.195 C 215.762 94.039,215.511 94.066,216.621 94.311 M190.425 95.032 C 189.698 95.264,189.663 95.323,190.244 95.332 C 190.641 95.337,191.292 95.202,191.689 95.032 C 192.610 94.636,191.660 94.636,190.425 95.032 M223.487 95.032 C 223.884 95.202,224.535 95.337,224.932 95.332 C 225.513 95.323,225.478 95.264,224.752 95.032 C 223.516 94.636,222.566 94.636,223.487 95.032 M186.992 95.754 C 186.536 95.950,186.470 96.065,186.811 96.065 C 187.109 96.065,187.678 95.925,188.076 95.754 C 188.531 95.559,188.598 95.444,188.257 95.444 C 187.958 95.444,187.389 95.583,186.992 95.754 M227.823 95.754 C 228.220 95.925,228.790 96.065,229.088 96.065 C 229.429 96.065,229.362 95.950,228.907 95.754 C 228.509 95.583,227.940 95.444,227.642 95.444 C 227.301 95.444,227.367 95.559,227.823 95.754 M231.436 96.477 C 231.834 96.648,232.403 96.788,232.701 96.788 C 233.043 96.788,232.976 96.673,232.520 96.477 C 232.123 96.306,231.554 96.166,231.256 96.166 C 230.914 96.166,230.981 96.281,231.436 96.477 M163.892 104.975 C 162.913 105.653,161.856 106.476,161.543 106.804 C 161.231 107.133,161.789 106.839,162.782 106.152 C 163.776 105.465,164.991 104.633,165.482 104.303 C 165.974 103.974,166.218 103.713,166.024 103.724 C 165.831 103.735,164.872 104.298,163.892 104.975 M248.998 103.794 C 249.084 103.844,249.965 104.616,250.955 105.510 L 252.755 107.136 251.144 105.420 C 250.258 104.476,249.378 103.704,249.187 103.704 C 248.997 103.704,248.911 103.744,248.998 103.794 M156.269 111.382 L 153.749 114.002 156.369 111.482 C 158.802 109.142,159.153 108.762,158.888 108.762 C 158.833 108.762,157.654 109.941,156.269 111.382 M254.430 118.760 C 254.403 119.191,254.288 119.841,254.173 120.205 C 253.976 120.832,253.987 120.833,254.378 120.224 C 254.605 119.871,254.720 119.221,254.635 118.779 C 254.480 117.977,254.480 117.977,254.430 118.760 M147.950 122.888 C 147.632 123.503,147.436 124.070,147.515 124.148 C 147.593 124.227,147.928 123.724,148.258 123.031 C 149.001 121.472,148.744 121.353,147.950 122.888 M203.869 126.013 C 205.201 126.082,207.478 126.083,208.927 126.014 C 210.377 125.945,209.286 125.888,206.504 125.888 C 203.722 125.887,202.536 125.944,203.869 126.013 M198.103 126.356 C 198.451 126.447,199.020 126.447,199.368 126.356 C 199.715 126.265,199.431 126.190,198.735 126.190 C 198.040 126.190,197.755 126.265,198.103 126.356 M214.002 126.356 C 214.350 126.447,214.919 126.447,215.266 126.356 C 215.614 126.265,215.330 126.190,214.634 126.190 C 213.939 126.190,213.654 126.265,214.002 126.356 M247.767 132.080 C 247.209 132.571,246.896 132.972,247.071 132.972 C 247.247 132.972,247.772 132.565,248.238 132.069 C 249.318 130.919,249.080 130.925,247.767 132.080 M238.427 135.187 C 239.291 135.346,240.592 135.349,241.318 135.194 C 242.360 134.971,242.029 134.911,239.747 134.906 C 237.248 134.900,237.069 134.938,238.427 135.187 M143.924 138.934 C 143.926 140.126,143.994 140.571,144.074 139.921 C 144.154 139.272,144.153 138.296,144.070 137.753 C 143.988 137.210,143.922 137.742,143.924 138.934 M143.577 144.535 C 143.577 146.224,143.639 146.915,143.715 146.070 C 143.791 145.226,143.791 143.844,143.715 142.999 C 143.639 142.154,143.577 142.846,143.577 144.535 M143.928 149.955 C 143.928 151.247,143.993 151.775,144.073 151.129 C 144.154 150.483,144.154 149.426,144.073 148.780 C 143.993 148.135,143.928 148.663,143.928 149.955 M144.619 155.736 C 144.619 156.432,144.693 156.716,144.784 156.369 C 144.875 156.021,144.875 155.452,144.784 155.104 C 144.693 154.756,144.619 155.041,144.619 155.736 M221.861 168.744 C 222.556 169.125,223.288 169.437,223.487 169.437 C 223.686 169.437,223.279 169.125,222.584 168.744 C 221.888 168.364,221.156 168.052,220.958 168.052 C 220.759 168.052,221.165 168.364,221.861 168.744 M155.736 177.278 C 155.736 177.467,156.671 178.511,157.814 179.597 L 159.892 181.572 157.904 179.412 C 156.811 178.224,155.876 177.181,155.827 177.094 C 155.777 177.006,155.736 177.089,155.736 177.278 M238.844 178.932 C 238.844 179.004,239.860 179.942,241.102 181.018 C 242.344 182.093,242.954 182.520,242.457 181.965 C 241.557 180.961,238.844 178.683,238.844 178.932 M160.399 181.866 C 160.959 182.569,163.686 184.795,163.686 184.549 C 163.686 184.464,162.832 183.683,161.789 182.813 C 160.745 181.942,160.120 181.517,160.399 181.866 M245.890 185.727 C 246.666 186.522,247.382 187.173,247.482 187.173 C 247.581 187.173,247.027 186.522,246.251 185.727 C 245.475 184.932,244.758 184.282,244.659 184.282 C 244.560 184.282,245.114 184.932,245.890 185.727 M164.950 185.515 C 165.547 186.027,166.183 186.447,166.366 186.448 C 166.757 186.450,166.753 186.447,165.131 185.400 L 163.866 184.583 164.950 185.515 M256.544 203.416 C 256.734 204.075,256.988 204.714,257.109 204.836 C 257.449 205.175,256.860 202.937,256.509 202.554 C 256.339 202.368,256.355 202.756,256.544 203.416 M257.277 205.812 C 257.280 206.192,257.448 206.748,257.650 207.046 C 257.918 207.442,257.951 207.296,257.774 206.504 C 257.477 205.175,257.270 204.887,257.277 205.812 M258.020 208.883 C 258.034 209.363,258.193 210.081,258.373 210.479 C 258.601 210.982,258.634 210.763,258.480 209.756 C 258.225 208.078,257.983 207.620,258.020 208.883 M209.937 209.756 C 210.610 210.253,211.252 210.659,211.362 210.658 C 211.703 210.655,209.416 208.880,209.054 208.866 C 208.866 208.859,209.263 209.259,209.937 209.756 M258.738 213.219 C 258.750 213.898,258.902 215.104,259.077 215.899 C 259.321 217.010,259.348 216.759,259.192 214.815 C 258.977 212.123,258.703 211.163,258.738 213.219 M124.080 213.849 C 114.066 219.165,105.228 230.618,101.724 242.818 C 95.264 265.309,107.213 286.925,133.225 299.803 C 138.277 302.304,139.379 302.791,143.270 304.234 C 144.463 304.677,145.763 305.180,146.161 305.353 C 146.952 305.696,151.148 306.967,153.297 307.514 C 154.042 307.704,155.262 308.021,156.007 308.220 C 169.719 311.869,190.516 312.307,205.962 309.270 C 216.537 307.192,224.490 304.171,233.604 298.773 C 239.880 295.056,243.925 291.703,239.659 293.755 C 237.866 294.617,237.536 294.755,234.869 295.755 C 215.618 302.974,189.784 303.928,168.383 298.210 C 167.290 297.918,165.908 297.550,165.312 297.393 C 163.776 296.987,158.619 295.257,157.543 294.787 C 157.046 294.570,156.274 294.252,155.827 294.080 C 132.837 285.229,117.442 269.233,114.662 251.310 C 113.917 246.504,114.629 236.646,115.966 233.243 C 116.123 232.846,116.451 231.870,116.697 231.075 C 117.956 227.005,122.671 217.919,124.292 216.441 C 125.360 215.467,127.509 212.468,127.134 212.476 C 126.867 212.481,125.493 213.099,124.080 213.849 M216.802 215.176 C 217.476 215.872,218.109 216.441,218.209 216.441 C 218.308 216.441,217.838 215.872,217.164 215.176 C 216.489 214.481,215.856 213.911,215.757 213.911 C 215.658 213.911,216.128 214.481,216.802 215.176 M220.849 222.042 C 220.849 222.439,220.979 223.171,221.138 223.668 C 221.367 224.383,221.428 224.420,221.428 223.848 C 221.428 223.451,221.297 222.719,221.138 222.222 C 220.909 221.507,220.849 221.469,220.849 222.042 M155.289 224.646 C 155.738 224.732,156.389 224.729,156.734 224.639 C 157.080 224.548,156.712 224.477,155.917 224.481 C 155.122 224.485,154.839 224.559,155.289 224.646 M220.978 229.650 C 220.842 230.375,220.803 231.040,220.891 231.129 C 220.979 231.217,221.163 230.696,221.299 229.971 C 221.435 229.246,221.474 228.580,221.386 228.492 C 221.297 228.404,221.114 228.925,220.978 229.650 M144.520 230.915 C 144.087 231.523,143.794 232.080,143.867 232.154 C 143.941 232.228,144.367 231.730,144.813 231.049 C 145.820 229.513,145.593 229.409,144.520 230.915 M258.816 231.256 C 258.816 232.150,258.886 232.516,258.972 232.069 C 259.058 231.621,259.058 230.890,258.972 230.443 C 258.886 229.995,258.816 230.361,258.816 231.256 M142.595 233.875 L 141.945 235.050 142.690 234.146 C 143.350 233.345,143.644 232.701,143.348 232.701 C 143.291 232.701,142.953 233.229,142.595 233.875 M258.226 234.584 C 258.104 235.039,258.019 235.736,258.036 236.134 C 258.053 236.531,258.216 236.222,258.398 235.447 C 258.750 233.945,258.600 233.189,258.226 234.584 M217.505 236.161 C 216.821 236.872,215.488 237.956,214.544 238.571 C 212.604 239.833,212.301 240.219,213.896 239.394 C 214.930 238.859,219.356 234.909,218.951 234.882 C 218.841 234.875,218.190 235.451,217.505 236.161 M257.478 237.966 C 257.345 238.496,257.306 238.999,257.392 239.084 C 257.477 239.169,257.655 238.805,257.788 238.276 C 257.921 237.746,257.960 237.243,257.875 237.158 C 257.790 237.073,257.611 237.437,257.478 237.966 M178.320 237.961 C 179.203 238.668,181.779 240.022,181.937 239.863 C 182.001 239.799,181.050 239.215,179.825 238.565 C 178.600 237.914,177.922 237.642,178.320 237.961 M139.315 242.296 C 139.179 243.022,139.140 243.687,139.229 243.776 C 139.317 243.864,139.501 243.343,139.637 242.618 C 139.773 241.893,139.812 241.227,139.723 241.139 C 139.635 241.050,139.452 241.571,139.315 242.296 M202.529 242.457 C 201.562 242.703,201.543 242.733,202.349 242.733 C 202.846 242.733,203.740 242.609,204.336 242.457 C 205.303 242.211,205.322 242.181,204.517 242.181 C 204.020 242.181,203.126 242.305,202.529 242.457 M255.887 243.161 C 255.676 243.768,255.580 244.264,255.674 244.264 C 255.918 244.264,256.599 242.387,256.420 242.208 C 256.339 242.126,256.099 242.555,255.887 243.161 M139.166 246.974 C 139.166 247.371,139.305 248.022,139.476 248.419 L 139.787 249.142 139.787 248.419 C 139.787 248.022,139.647 247.371,139.476 246.974 L 139.166 246.251 139.166 246.974 M144.380 257.667 C 144.962 258.382,145.511 258.905,145.600 258.830 C 145.689 258.755,145.213 258.171,144.542 257.531 L 143.323 256.369 144.380 257.667 M147.029 260.277 C 147.590 260.979,150.316 263.205,150.316 262.960 C 150.316 262.875,149.463 262.093,148.419 261.223 C 147.376 260.353,146.750 259.927,147.029 260.277 M172.358 273.516 C 172.656 273.717,173.211 273.885,173.592 273.888 C 174.517 273.895,174.228 273.688,172.900 273.391 C 172.108 273.214,171.962 273.248,172.358 273.516 M183.288 275.949 C 183.636 276.040,184.205 276.040,184.553 275.949 C 184.901 275.858,184.616 275.784,183.921 275.784 C 183.225 275.784,182.940 275.858,183.288 275.949 M211.472 275.949 C 211.820 276.040,212.389 276.040,212.737 275.949 C 213.085 275.858,212.800 275.784,212.105 275.784 C 211.409 275.784,211.125 275.858,211.472 275.949 M189.431 276.686 C 190.176 276.764,191.396 276.764,192.141 276.686 C 192.886 276.608,192.276 276.544,190.786 276.544 C 189.295 276.544,188.686 276.608,189.431 276.686 M204.418 276.684 C 205.060 276.763,206.198 276.765,206.948 276.686 C 207.697 276.608,207.173 276.543,205.781 276.541 C 204.390 276.540,203.777 276.604,204.418 276.684 M196.838 277.049 C 197.683 277.125,199.065 277.125,199.910 277.049 C 200.754 276.973,200.063 276.910,198.374 276.910 C 196.685 276.910,195.994 276.973,196.838 277.049 " stroke="none" fill="#a4a4b3" fill-rule="evenodd"></path></g></svg>
